<?xml version="1.0" standalone="no"?>
  <!DOCTYPE svg PUBLIC "-//W3C//DTD SVG 1.1//EN" "http://www.w3.org/Graphics/SVG/1.1/DTD/svg11.dtd" >
  <svg>
  <metadata>
  Created by font-carrier
  </metadata>
  <defs>
  <font id="LucidaSansUnicode" horiz-adv-x="3032" vert-adv-y="3032" >
    <font-face
      
      font-family="Lucida Sans Unicode"
      
      font-weight="400"
      
      font-stretch="normal"
      
      units-per-em="2048"
      
      ascent="2246"
      
      descent="-901"
      
    />
      <missing-glyph />

      

      
      <glyph glyph-name="uni21" unicode="&#x21;" d="M225 0L225 197L422 197L422 0L225 0M250 395L225 1184L225 1480L422 1480L422 1184L398 395L250 395Z"  horiz-adv-x="648" vert-adv-y="2048"  />

      
      <glyph glyph-name="uni22" unicode="&#x22;" d="M136 1086L111 1579L308 1579L284 1086L136 1086M481 1086L456 1579L654 1579L629 1086L481 1086Z"  horiz-adv-x="765" vert-adv-y="2048"  />

      
      <glyph glyph-name="uni23" unicode="&#x23;" d="M203 0L314 444L15 444L40 568L345 568L432 913L108 913L133 1036L462 1036L574 1480L701 1480L590 1036L853 1036L964 1480L1092 1480L981 1036L1280 1036L1256 913L950 913L863 568L1187 568L1162 444L833 444L722 0L594 0L705 444L442 444L331 0L203 0M473 568L736 568L823 913L559 913L473 568Z"  horiz-adv-x="1295" vert-adv-y="2048"  />

      
      <glyph glyph-name="uni24" unicode="&#x24;" d="M611-123L611 0Q435 0 216 83L216 253Q442 148 611 148L611 679Q408 803 333.50 898Q259 993 259 1125Q259 1273 355.50 1370.50Q452 1468 611 1480L611 1604L709 1604L709 1480Q855 1480 1030 1413L1030 1252Q838 1335 709 1345L709 818Q763 785 790 769Q944 676 999.50 601.50Q1055 527 1055 414Q1055 257 962 145.50Q869 34 709 0L709-123L611-123M709 160Q882 222 882 385Q882 456 849 501.50Q816 547 709 621L709 160M611 883L611 1339Q432 1283 432 1129Q432 1053 469 1001.50Q506 950 611 883Z"  horiz-adv-x="1295" vert-adv-y="2048"  />

      
      <glyph glyph-name="uni25" unicode="&#x25;" d="M24-37L1190 1517L1344 1517L179-37L24-37M327 740Q182 740 97 840Q12 940 12 1110Q12 1281 97 1380.50Q182 1480 327 1480Q471 1480 556 1380.50Q641 1281 641 1110Q641 940 556 840Q471 740 327 740M327 839Q403 839 448 912.50Q493 986 493 1110Q493 1235 448 1308.50Q403 1382 327 1382Q250 1382 205 1308.50Q160 1235 160 1110Q160 986 205 912.50Q250 839 327 839M1042 0Q897 0 812.50 100Q728 200 728 370Q728 540 812.50 640Q897 740 1042 740Q1187 740 1272 640Q1357 540 1357 370Q1357 200 1272 100Q1187 0 1042 0M1042 99Q1119 99 1164 172Q1209 245 1209 370Q1209 495 1164 568.50Q1119 642 1042 642Q966 642 921 568.50Q876 495 876 370Q876 245 921 172Q966 99 1042 99Z"  horiz-adv-x="1369" vert-adv-y="2048"  />

      
      <glyph glyph-name="uni26" unicode="&#x26;" d="M1061 0L988 88Q824-37 605-37Q373-37 223.50 97.50Q74 232 74 440Q74 782 435 904Q335 1085 335 1205Q335 1336 439 1426.50Q543 1517 693 1517Q837 1517 930.50 1432.50Q1024 1348 1024 1218Q1024 996 699 832Q848 568 1046 339Q1137 472 1137 715L1136 787L1332 787Q1332 459 1136 221Q1226 107 1341 0L1061 0M902 202Q692 460 502 787Q271 695 271 488Q271 331 377.50 221Q484 111 637 111Q776 111 902 202M627 957Q839 1054 839 1215Q839 1285 796.50 1327Q754 1369 685 1369Q616 1369 574.50 1326.50Q533 1284 533 1214Q533 1112 627 957Z"  horiz-adv-x="1428" vert-adv-y="2048"  />

      
      <glyph glyph-name="uni27" unicode="&#x27;" d="M160 1036L111 1579L358 1579L308 1036L160 1036Z"  horiz-adv-x="469" vert-adv-y="2048"  />

      
      <glyph glyph-name="uni28" unicode="&#x28;" d="M592-160L592-296Q376-149 249.50 103.50Q123 356 123 642Q123 927 249.50 1179.50Q376 1432 592 1579L592 1443Q445 1283 382.50 1099Q320 915 320 642Q320 368 382.50 184Q445 0 592-160Z"  horiz-adv-x="666" vert-adv-y="2048"  />

      
      <glyph glyph-name="uni29" unicode="&#x29;" d="M74 1443L74 1579Q290 1432 416.50 1179.50Q543 927 543 642Q543 356 416.50 103.50Q290-149 74-296L74-160Q221 0 283 184Q345 368 345 642Q345 915 283 1099.50Q221 1284 74 1443Z"  horiz-adv-x="666" vert-adv-y="2048"  />

      
      <glyph glyph-name="uni2a" unicode="&#x2a;" d="M832 1289L877 1148L574 1082L577 1097Q577 1138 548 1164L832 1289M777 838L657 751L500 1018Q551 1024 570 1069L777 838M331 751L211 838L417 1069Q437 1024 487 1018L331 751M110 1148L156 1289L440 1164Q411 1139 411 1097L413 1082L110 1148M420 1480L568 1480L537 1172Q519 1183 494 1183Q469 1183 451 1172L420 1480Z"  horiz-adv-x="987" vert-adv-y="2048"  />

      
      <glyph glyph-name="uni2b" unicode="&#x2b;" d="M765 0L765 543L222 543L222 642L765 642L765 1184L864 1184L864 642L1406 642L1406 543L864 543L864 0L765 0Z"  horiz-adv-x="1628" vert-adv-y="2048"  />

      
      <glyph glyph-name="uni2c" unicode="&#x2c;" d="M200-321L200-247Q296-220 296-20L296 0L200 0L200 247L447 247L447 33Q447-296 200-321Z"  horiz-adv-x="648" vert-adv-y="2048"  />

      
      <glyph glyph-name="uni2d" unicode="&#x2d;" d="M148 543L148 666L1036 666L1036 543L148 543Z"  horiz-adv-x="1185" vert-adv-y="2048"  />

      
      <glyph glyph-name="uni2e" unicode="&#x2e;" d="M200 0L200 247L447 247L447 0L200 0Z"  horiz-adv-x="648" vert-adv-y="2048"  />

      
      <glyph glyph-name="uni2f" unicode="&#x2f;" d="M222-296L748 1481L852 1481L326-296L222-296Z"  horiz-adv-x="1074" vert-adv-y="2048"  />

      
      <glyph glyph-name="uni30" unicode="&#x30;" d="M648-37Q415-37 272.50 176.50Q130 390 130 740Q130 1090 272.50 1303.50Q415 1517 648 1517Q882 1517 1024 1304Q1166 1091 1166 740Q1166 390 1024 176.50Q882-37 648-37M648 111Q957 111 957 740Q957 1369 648 1369Q340 1369 340 740Q340 111 648 111Z"  horiz-adv-x="1295" vert-adv-y="2048"  />

      
      <glyph glyph-name="uni31" unicode="&#x31;" d="M536 0L536 1332L302 1332L302 1456L734 1493L734 0L536 0Z"  horiz-adv-x="1295" vert-adv-y="2048"  />

      
      <glyph glyph-name="uni32" unicode="&#x32;" d="M170 0L170 173Q256 374 518 611L631 712Q849 909 849 1103Q849 1227 774.50 1298Q700 1369 569 1369Q416 1369 207 1250L207 1424Q404 1517 599 1517Q807 1517 932.50 1405Q1058 1293 1058 1108Q1058 975 994.50 872Q931 769 758 622L682 557Q445 356 408 173L1051 173L1051 0L170 0Z"  horiz-adv-x="1295" vert-adv-y="2048"  />

      
      <glyph glyph-name="uni33" unicode="&#x33;" d="M208 11L208 195Q419 111 540 111Q683 111 771.50 193Q860 275 860 407Q860 719 423 719L345 719L345 852L414 853Q824 853 824 1142Q824 1369 552 1369Q406 1369 228 1286L228 1458Q403 1517 565 1517Q786 1517 904 1429Q1022 1341 1022 1174Q1022 913 713 802Q1071 719 1071 410Q1071 201 933 82Q795-37 554-37Q417-37 208 11Z"  horiz-adv-x="1295" vert-adv-y="2048"  />

      
      <glyph glyph-name="uni34" unicode="&#x34;" d="M771 0L771 419L105 419L105 568L771 1480L956 1480L956 580L1154 580L1154 419L956 419L956 0L771 0M298 580L784 580L784 1238L298 580Z"  horiz-adv-x="1295" vert-adv-y="2048"  />

      
      <glyph glyph-name="uni35" unicode="&#x35;" d="M249-6L249 170Q396 111 529 111Q675 111 758.50 197Q842 283 842 434Q842 596 724 681.50Q606 767 383 767Q331 767 274 760L274 1480L1023 1480L1023 1308L447 1308L447 918Q732 918 892 787Q1052 656 1052 424Q1052 208 906.50 85.50Q761-37 505-37Q391-37 249-6Z"  horiz-adv-x="1295" vert-adv-y="2048"  />

      
      <glyph glyph-name="uni36" unicode="&#x36;" d="M352 767Q493 950 707 950Q901 950 1024.50 821.50Q1148 693 1148 492Q1148 261 1009.50 112Q871-37 657-37Q413-37 275 160.50Q137 358 137 707Q137 1177 378 1397Q509 1518 740 1518Q874 1518 1072 1462L1072 1290Q863 1370 728 1370Q352 1370 352 767M950 453Q950 617 874 712.50Q798 808 666 808Q540 808 450 724Q360 640 360 522Q360 336 445.50 223.50Q531 111 672 111Q800 111 875 203Q950 295 950 453Z"  horiz-adv-x="1295" vert-adv-y="2048"  />

      
      <glyph glyph-name="uni37" unicode="&#x37;" d="M308 0Q337 173 390.50 299Q444 425 580 645L984 1295L222 1295L222 1480L1172 1480L1172 1295Q603 456 535 0L308 0Z"  horiz-adv-x="1295" vert-adv-y="2048"  />

      
      <glyph glyph-name="uni38" unicode="&#x38;" d="M471 806Q349 891 301.50 964Q254 1037 254 1140Q254 1308 377 1413Q500 1518 698 1518Q881 1518 994.50 1429Q1108 1340 1108 1198Q1108 983 832 806Q1167 642 1167 383Q1167 198 1027 80.50Q887-37 667-37Q447-37 312 73.50Q177 184 177 364Q177 630 471 806M722 868Q929 1004 929 1171Q929 1260 859.50 1314.50Q790 1369 678 1369Q569 1369 501 1315.50Q433 1262 433 1177Q433 1094 494.50 1028Q556 962 722 868M578 726Q459 634 416.50 565.50Q374 497 374 395Q374 268 456 189.50Q538 111 672 111Q801 111 882.50 178Q964 245 964 352Q964 438 913.50 497.50Q863 557 718 643L578 726Z"  horiz-adv-x="1295" vert-adv-y="2048"  />

      
      <glyph glyph-name="uni39" unicode="&#x39;" d="M233 9L233 176Q421 111 553 111Q737 111 840.50 267.50Q944 424 944 703Q794 518 603 518Q416 518 286 655.50Q156 793 156 991Q156 1218 294.50 1367.50Q433 1517 643 1517Q884 1517 1023 1323.50Q1162 1130 1162 794Q1162 580 1095 391.50Q1028 203 915 98Q770-37 534-37Q418-37 233 9M353 1025Q353 856 430 758Q507 660 638 660Q764 660 852.50 745Q941 830 941 950Q941 1139 855.50 1254.50Q770 1370 631 1370Q501 1370 427 1278Q353 1186 353 1025Z"  horiz-adv-x="1295" vert-adv-y="2048"  />

      
      <glyph glyph-name="uni3a" unicode="&#x3a;" d="M225 0L225 197L422 197L422 0L225 0M225 888L225 1086L422 1086L422 888L225 888Z"  horiz-adv-x="648" vert-adv-y="2048"  />

      
      <glyph glyph-name="uni3b" unicode="&#x3b;" d="M225-321L225-247Q296-210 296-23L296 0L225 0L225 197L422 197L422 31Q422-272 225-321M225 888L225 1086L422 1086L422 888L225 888Z"  horiz-adv-x="648" vert-adv-y="2048"  />

      
      <glyph glyph-name="uni3c" unicode="&#x3c;" d="M1406 0L222 592L1406 1184L1406 1074L445 591L1406 110L1406 0Z"  horiz-adv-x="1628" vert-adv-y="2048"  />

      
      <glyph glyph-name="uni3d" unicode="&#x3d;" d="M222 358L222 456L1406 456L1406 358L222 358M222 728L222 827L1406 827L1406 728L222 728Z"  horiz-adv-x="1628" vert-adv-y="2048"  />

      
      <glyph glyph-name="uni3e" unicode="&#x3e;" d="M222 0L222 110L1184 593L222 1074L222 1184L1406 592L222 0Z"  horiz-adv-x="1628" vert-adv-y="2048"  />

      
      <glyph glyph-name="uni3f" unicode="&#x3f;" d="M250 0L250 197L447 197L447 0L250 0M250 395L250 449Q250 561 280.50 635Q311 709 397 808L460 881Q617 1061 617 1176Q617 1265 547.50 1317Q478 1369 360 1369Q209 1369 37 1295L37 1462Q222 1518 385 1518Q588 1518 707.50 1426.50Q827 1335 827 1179Q827 1091 792.50 1027.50Q758 964 660 871L598 813Q505 725 476 665.50Q447 606 447 505L447 395L250 395Z"  horiz-adv-x="864" vert-adv-y="2048"  />

      
      <glyph glyph-name="uni40" unicode="&#x40;" d="M1093 44Q913-37 740-37Q459-37 276 136.50Q93 310 93 576Q93 915 337 1196Q467 1345 652.50 1431Q838 1517 1028 1517Q1307 1517 1495.50 1337Q1684 1157 1684 890Q1684 643 1533 469.50Q1382 296 1167 296Q1000 296 1000 411Q1000 453 1021 516L1061 642L1049 642Q868 296 662 296Q575 296 522 357Q469 418 469 520Q469 661 541 820.50Q613 980 719 1072Q841 1178 994 1178Q1025 1178 1073 1175Q1122 1172 1151 1172L1288 1172L1162 536Q1156 504 1156 474Q1156 407 1232 407Q1365 407 1469 549Q1573 691 1573 873Q1573 1103 1414 1255Q1255 1407 1013 1407Q696 1407 450 1157.50Q204 908 204 586Q204 361 358.50 217.50Q513 74 756 74Q913 74 1057 146L1093 44M1073 833L1112 1028Q1020 1061 952 1061Q852 1061 788 1005Q720 946 671.50 816Q623 686 623 561Q623 419 706 419Q767 419 867.50 532.50Q968 646 1073 833Z"  horiz-adv-x="1758" vert-adv-y="2048"  />

      
      <glyph glyph-name="uni41" unicode="&#x41;" d="M17 0L604 1480L812 1480L1390 0L1163 0L1002 410L375 410L212 0L17 0M436 566L941 566L689 1204L436 566Z"  horiz-adv-x="1413" vert-adv-y="2048"  />

      
      <glyph glyph-name="uni42" unicode="&#x42;" d="M191 0L191 1480L575 1480Q797 1480 915.50 1396Q1034 1312 1034 1154Q1034 1026 955 926Q876 826 730 771Q1093 660 1093 370Q1093 240 1013 139Q952 62 866 31Q780 0 627 0L191 0M399 157L442 157Q673 157 741 186Q871 241 871 390Q871 522 753 609.50Q635 697 458 697L399 697L399 157M399 830L466 830Q635 830 727 902Q819 974 819 1107Q819 1323 481 1323L399 1323L399 830Z"  horiz-adv-x="1178" vert-adv-y="2048"  />

      
      <glyph glyph-name="uni43" unicode="&#x43;" d="M1303 76Q1084-37 825-37Q480-37 292 165Q104 367 104 739Q104 1110 295.50 1313.50Q487 1517 836 1517Q1034 1517 1301 1452L1301 1255Q997 1360 832 1360Q591 1360 459 1197Q327 1034 327 737Q327 453 468 290Q609 127 854 127Q1063 127 1303 256L1303 76Z"  horiz-adv-x="1417" vert-adv-y="2048"  />

      
      <glyph glyph-name="uni44" unicode="&#x44;" d="M191 0L191 1480L683 1480Q903 1480 1038.50 1431Q1174 1382 1273 1265Q1430 1079 1430 775Q1430 432 1246 219Q1146 102 1014.50 51Q883 0 686 0L191 0M401 157L670 157Q958 157 1078 312Q1207 477 1207 755Q1207 1016 1080 1165Q1003 1256 896 1289.50Q789 1323 574 1323L401 1323L401 157Z"  horiz-adv-x="1534" vert-adv-y="2048"  />

      
      <glyph glyph-name="uni45" unicode="&#x45;" d="M191 0L191 1480L1018 1480L1018 1323L401 1323L401 848L918 848L918 693L401 693L401 157L1061 157L1061 0L191 0Z"  horiz-adv-x="1110" vert-adv-y="2048"  />

      
      <glyph glyph-name="uni46" unicode="&#x46;" d="M191 0L191 1480L1018 1480L1018 1323L401 1323L401 827L919 827L919 672L401 672L401 0L191 0Z"  horiz-adv-x="1098" vert-adv-y="2048"  />

      
      <glyph glyph-name="uni47" unicode="&#x47;" d="M1303 40Q1034-37 834-37Q481-37 292.50 163.50Q104 364 104 740Q104 1110 295.50 1313.50Q487 1517 834 1517Q1057 1517 1301 1450L1301 1256Q995 1360 832 1360Q592 1360 459.50 1197.50Q327 1035 327 739Q327 446 469 283Q611 120 867 120Q972 120 1094 157L1094 639L1303 639L1303 40Z"  horiz-adv-x="1480" vert-adv-y="2048"  />

      
      <glyph glyph-name="uni48" unicode="&#x48;" d="M191 0L191 1480L401 1480L401 856L1105 856L1105 1480L1315 1480L1315 0L1105 0L1105 699L401 699L401 0L191 0Z"  horiz-adv-x="1505" vert-adv-y="2048"  />

      
      <glyph glyph-name="uni49" unicode="&#x49;" d="M190 0L190 1480L400 1480L400 0L190 0Z"  horiz-adv-x="590" vert-adv-y="2048"  />

      
      <glyph glyph-name="uni4a" unicode="&#x4a;" d="M-184-275L-184-89Q-64-128 30-128Q148-128 195.50-59Q243 10 243 180L243 1480L453 1480L453 187Q453-296-4-296Q-74-296-184-275Z"  horiz-adv-x="637" vert-adv-y="2048"  />

      
      <glyph glyph-name="uni4b" unicode="&#x4b;" d="M191 0L191 1480L388 1480L388 752L987 1480L1198 1480L618 774L1301 0L1035 0L388 750L388 0L191 0Z"  horiz-adv-x="1337" vert-adv-y="2048"  />

      
      <glyph glyph-name="uni4c" unicode="&#x4c;" d="M191 0L191 1480L401 1480L401 157L1067 157L1067 0L191 0Z"  horiz-adv-x="1092" vert-adv-y="2048"  />

      
      <glyph glyph-name="uni4d" unicode="&#x4d;" d="M191 0L191 1480L482 1480L892 335L1314 1480L1574 1480L1574 0L1378 0L1378 1204L970 99L767 99L371 1207L371 0L191 0Z"  horiz-adv-x="1764" vert-adv-y="2048"  />

      
      <glyph glyph-name="uni4e" unicode="&#x4e;" d="M191 0L191 1480L397 1480L1142 337L1142 1480L1322 1480L1322 0L1117 0L371 1143L371 0L191 0Z"  horiz-adv-x="1513" vert-adv-y="2048"  />

      
      <glyph glyph-name="uni4f" unicode="&#x4f;" d="M796-37Q481-37 292.50 174.50Q104 386 104 740Q104 1094 292.50 1305.50Q481 1517 796 1517Q1111 1517 1299.50 1305.50Q1488 1094 1488 740Q1488 386 1299.50 174.50Q1111-37 796-37M796 120Q1017 120 1141 284.50Q1265 449 1265 742Q1265 1033 1141 1196.50Q1017 1360 796 1360Q575 1360 451 1196.50Q327 1033 327 742Q327 449 451 284.50Q575 120 796 120Z"  horiz-adv-x="1591" vert-adv-y="2048"  />

      
      <glyph glyph-name="uni50" unicode="&#x50;" d="M191 0L191 1480L594 1480Q768 1480 862.50 1451.50Q957 1423 1017 1351Q1096 1256 1096 1092Q1096 856 936 722Q776 588 492 588L399 588L399 0L191 0M399 747L484 747Q671 747 773 833Q875 919 875 1077Q875 1209 794.50 1266Q714 1323 528 1323L399 1323L399 747Z"  horiz-adv-x="1132" vert-adv-y="2048"  />

      
      <glyph glyph-name="uni51" unicode="&#x51;" d="M1505-296Q1156-183 920-27Q826-37 775-37Q477-37 290.50 179Q104 395 104 740Q104 1094 292.50 1305.50Q481 1517 796 1517Q1112 1517 1300 1305Q1488 1093 1488 737Q1488 227 1109 31Q1364-81 1638-129L1505-296M796 120Q1017 120 1141 284Q1265 448 1265 740Q1265 1033 1141 1196.50Q1017 1360 796 1360Q575 1360 451 1196.50Q327 1033 327 742Q327 449 451 284.50Q575 120 796 120Z"  horiz-adv-x="1591" vert-adv-y="2048"  />

      
      <glyph glyph-name="uni52" unicode="&#x52;" d="M191 0L191 1480L639 1480Q852 1480 965.50 1386Q1079 1292 1079 1113Q1079 972 1000.50 862Q922 752 780 693L1274 0L1016 0L595 626L399 626L399 0L191 0M399 783L467 783Q661 783 762 862Q863 941 863 1093Q863 1323 531 1323L399 1323L399 783Z"  horiz-adv-x="1295" vert-adv-y="2048"  />

      
      <glyph glyph-name="uni53" unicode="&#x53;" d="M100 28L100 236Q350 120 512 120Q635 120 710.50 185.50Q786 251 786 356Q786 443 736.50 504Q687 565 554 640L452 699Q263 807 185.50 902.50Q108 998 108 1124Q108 1296 232 1406.50Q356 1517 548 1517Q719 1517 909 1460L909 1268Q675 1360 560 1360Q451 1360 380 1302Q309 1244 309 1156Q309 1082 361 1025Q413 968 551 889L657 829Q849 720 925 623Q1001 526 1001 390Q1001 197 859 80Q717-37 482-37Q332-37 100 28Z"  horiz-adv-x="1103" vert-adv-y="2048"  />

      
      <glyph glyph-name="uni54" unicode="&#x54;" d="M543 0L543 1323L18 1323L18 1480L1278 1480L1278 1323L753 1323L753 0L543 0Z"  horiz-adv-x="1295" vert-adv-y="2048"  />

      
      <glyph glyph-name="uni55" unicode="&#x55;" d="M179 1480L389 1480L389 546Q389 323 471.50 221.50Q554 120 734 120Q910 120 983.50 215.50Q1057 311 1057 539L1057 1480L1241 1480L1241 542Q1241 348 1203 244Q1165 140 1066 61Q942-37 725-37Q444-37 311.50 105Q179 247 179 548L179 1480Z"  horiz-adv-x="1419" vert-adv-y="2048"  />

      
      <glyph glyph-name="uni56" unicode="&#x56;" d="M595 0L36 1480L246 1480L704 268L1146 1480L1330 1480L793 0L595 0Z"  horiz-adv-x="1339" vert-adv-y="2048"  />

      
      <glyph glyph-name="uni57" unicode="&#x57;" d="M383 0L2 1480L204 1480L507 311L786 1480L988 1480L1252 327L1578 1480L1749 1480L1334 0L1125 0L864 1141L591 0L383 0Z"  horiz-adv-x="1752" vert-adv-y="2048"  />

      
      <glyph glyph-name="uni58" unicode="&#x58;" d="M16 0L507 743L40 1480L288 1480L644 922L1018 1480L1216 1480L743 765L1228 0L980 0L604 587L215 0L16 0Z"  horiz-adv-x="1282" vert-adv-y="2048"  />

      
      <glyph glyph-name="uni59" unicode="&#x59;" d="M511 0L511 618L17 1480L257 1480L641 812L1055 1480L1250 1480L721 622L721 0L511 0Z"  horiz-adv-x="1276" vert-adv-y="2048"  />

      
      <glyph glyph-name="uni5a" unicode="&#x5a;" d="M95 0L95 168L890 1323L144 1323L144 1480L1142 1480L1142 1323L347 168L1142 168L1142 0L95 0Z"  horiz-adv-x="1238" vert-adv-y="2048"  />

      
      <glyph glyph-name="uni5b" unicode="&#x5b;" d="M197-296L197 1579L592 1579L592 1431L370 1431L370-148L592-148L592-296L197-296Z"  horiz-adv-x="666" vert-adv-y="2048"  />

      
      <glyph glyph-name="uni5c" unicode="&#x5c;" d="M852-296L748-296L222 1481L326 1481L852-296Z"  horiz-adv-x="1074" vert-adv-y="2048"  />

      
      <glyph glyph-name="uni5d" unicode="&#x5d;" d="M469 1579L469-296L74-296L74-148L296-148L296 1431L74 1431L74 1579L469 1579Z"  horiz-adv-x="666" vert-adv-y="2048"  />

      
      <glyph glyph-name="uni5e" unicode="&#x5e;" d="M648 1149L271 395L105 395L648 1480L1191 395L1025 395L648 1149Z"  horiz-adv-x="1295" vert-adv-y="2048"  />

      
      <glyph glyph-name="uni5f" unicode="&#x5f;" d="M86-148L86 0L937 0L937-148L86-148Z"  horiz-adv-x="1024" vert-adv-y="2048"  />

      
      <glyph glyph-name="uni60" unicode="&#x60;" d="M864 1283L716 1283L395 1604L623 1604L864 1283Z"  horiz-adv-x="1258" vert-adv-y="2048"  />

      
      <glyph glyph-name="uni61" unicode="&#x61;" d="M757 138Q580-25 416-25Q281-25 192 59.50Q103 144 103 273Q103 451 252.50 546.50Q402 642 682 642L728 642L728 773Q728 962 531 962Q378 962 197 866L197 1029Q396 1110 572 1110Q753 1110 839 1027.50Q925 945 925 773L925 281Q925 112 1029 112Q1042 112 1067 116L1081 7Q1014-25 933-25Q795-25 757 138M728 245L728 526L665 528Q501 528 400.50 467Q300 406 300 305Q300 234 350 185Q400 136 472 136Q595 136 728 245Z"  horiz-adv-x="1131" vert-adv-y="2048"  />

      
      <glyph glyph-name="uni62" unicode="&#x62;" d="M197-12L197 1579L394 1579L394 882Q515 1110 757 1110Q953 1110 1065.50 967Q1178 824 1178 576Q1178 306 1050.50 140.50Q923-25 715-25Q522-25 394 123L370-12L197-12M394 259Q546 123 684 123Q820 123 894 236.50Q968 350 968 556Q968 938 716 938Q551 938 394 759L394 259Z"  horiz-adv-x="1289" vert-adv-y="2048"  />

      
      <glyph glyph-name="uni63" unicode="&#x63;" d="M951 33Q760-25 621-25Q401-25 256 138Q111 301 111 549Q111 814 254.50 962Q398 1110 655 1110Q782 1110 939 1075L939 910Q772 959 667 959Q515 959 424 845.50Q333 732 333 543Q333 360 427 247Q521 134 673 134Q808 134 951 203L951 33Z"  horiz-adv-x="1049" vert-adv-y="2048"  />

      
      <glyph glyph-name="uni64" unicode="&#x64;" d="M894 0L894 204Q774-25 532-25Q336-25 223.50 118Q111 261 111 509Q111 780 238.50 945Q366 1110 574 1110Q767 1110 894 962L894 1579L1092 1579L1092 0L894 0M894 827Q741 962 604 962Q469 962 395 849Q321 736 321 529Q321 148 573 148Q737 148 894 327L894 827Z"  horiz-adv-x="1289" vert-adv-y="2048"  />

      
      <glyph glyph-name="uni65" unicode="&#x65;" d="M993 35Q795-25 654-25Q413-25 262 134.50Q111 294 111 548Q111 795 244.50 953Q378 1111 586 1111Q783 1111 890.50 970.50Q998 830 998 572L997 512L312 512Q355 125 691 125Q814 125 993 191L993 35M321 660L800 660Q800 963 574 963Q347 963 321 660Z"  horiz-adv-x="1141" vert-adv-y="2048"  />

      
      <glyph glyph-name="uni66" unicode="&#x66;" d="M234 0L234 938L80 938L80 1086L234 1086L234 1216Q234 1604 588 1604Q687 1604 813 1571L813 1415Q680 1456 600 1456Q503 1456 467.50 1409.50Q432 1363 432 1237L432 1086L703 1086L703 938L432 938L432 0L234 0Z"  horiz-adv-x="753" vert-adv-y="2048"  />

      
      <glyph glyph-name="uni67" unicode="&#x67;" d="M201-361L224-190Q395-271 562-271Q894-271 894 82L894 253Q843 145 748.50 85Q654 25 538 25Q341 25 226 166.50Q111 308 111 550Q111 798 242 954Q373 1110 581 1110Q763 1110 894 962L894 1086L1092 1086L1092 296Q1092 41 1065.50-81.50Q1039-204 966-282Q837-419 563-419Q375-419 201-361M894 376L894 827Q764 962 611 962Q475 962 398 853Q321 744 321 551Q321 197 572 197Q743 197 894 376Z"  horiz-adv-x="1277" vert-adv-y="2048"  />

      
      <glyph glyph-name="uni68" unicode="&#x68;" d="M197 0L197 1579L394 1579L394 882Q550 1110 776 1110Q918 1110 1001.50 1020.50Q1085 931 1085 780L1085 0L888 0L888 716Q888 837 852.50 888.50Q817 940 735 940Q554 940 394 703L394 0L197 0Z"  horiz-adv-x="1271" vert-adv-y="2048"  />

      
      <glyph glyph-name="uni69" unicode="&#x69;" d="M197 0L197 1086L394 1086L394 0L197 0M197 1283L197 1480L394 1480L394 1283L197 1283Z"  horiz-adv-x="592" vert-adv-y="2048"  />

      
      <glyph glyph-name="uni6a" unicode="&#x6a;" d="M-154-369L-154-213Q-16-271 56-271Q138-271 183-227Q213-197 220.50-159Q228-121 228 0L228 1086L426 1086L426 0Q426-419 72-419Q-33-419-154-369M228 1283L228 1480L426 1480L426 1283L228 1283Z"  horiz-adv-x="623" vert-adv-y="2048"  />

      
      <glyph glyph-name="uni6b" unicode="&#x6b;" d="M197 0L197 1579L394 1579L394 559L854 1086L1066 1086L627 579L1157 0L905 0L394 557L394 0L197 0Z"  horiz-adv-x="1197" vert-adv-y="2048"  />

      
      <glyph glyph-name="uni6c" unicode="&#x6c;" d="M197 0L197 1579L394 1579L394 0L197 0Z"  horiz-adv-x="592" vert-adv-y="2048"  />

      
      <glyph glyph-name="uni6d" unicode="&#x6d;" d="M197 0L197 1086L394 1086L394 882Q538 1110 764 1110Q982 1110 1061 882Q1201 1111 1425 1111Q1568 1111 1647.50 1026.50Q1727 942 1727 790L1727 0L1529 0L1529 759Q1529 945 1382 945Q1229 945 1061 728L1061 0L863 0L863 759Q863 946 713 946Q564 946 394 728L394 0L197 0Z"  horiz-adv-x="1912" vert-adv-y="2048"  />

      
      <glyph glyph-name="uni6e" unicode="&#x6e;" d="M197 0L197 1086L394 1086L394 882Q550 1110 776 1110Q918 1110 1001.50 1020.50Q1085 931 1085 780L1085 0L888 0L888 716Q888 837 852.50 888.50Q817 940 735 940Q554 940 394 703L394 0L197 0Z"  horiz-adv-x="1271" vert-adv-y="2048"  />

      
      <glyph glyph-name="uni6f" unicode="&#x6f;" d="M629-25Q390-25 250.50 128Q111 281 111 543Q111 805 250.50 957.50Q390 1110 629 1110Q868 1110 1007.50 957.50Q1147 805 1147 543Q1147 281 1007.50 128Q868-25 629-25M629 123Q776 123 857 233Q938 343 938 543Q938 743 857 852.50Q776 962 629 962Q482 962 401.50 852.50Q321 743 321 543Q321 343 401.50 233Q482 123 629 123Z"  horiz-adv-x="1258" vert-adv-y="2048"  />

      
      <glyph glyph-name="uni70" unicode="&#x70;" d="M197-395L197 1086L394 1086L394 882Q515 1110 757 1110Q953 1110 1065.50 967Q1178 824 1178 576Q1178 306 1050.50 140.50Q923-25 715-25Q522-25 394 123L394-395L197-395M394 259Q546 123 684 123Q820 123 894 236.50Q968 350 968 556Q968 938 716 938Q551 938 394 759L394 259Z"  horiz-adv-x="1289" vert-adv-y="2048"  />

      
      <glyph glyph-name="uni71" unicode="&#x71;" d="M894-395L894 204Q774-25 532-25Q336-25 223.50 118Q111 261 111 509Q111 780 238.50 945Q366 1110 574 1110Q767 1110 894 962L894 1086L1092 1086L1092-395L894-395M894 827Q741 962 604 962Q469 962 395 849Q321 736 321 529Q321 148 573 148Q737 148 894 327L894 827Z"  horiz-adv-x="1289" vert-adv-y="2048"  />

      
      <glyph glyph-name="uni72" unicode="&#x72;" d="M197 0L197 1086L394 1086L394 882Q511 1110 734 1110Q764 1110 797 1105L797 921Q746 938 707 938Q520 938 394 716L394 0L197 0Z"  horiz-adv-x="838" vert-adv-y="2048"  />

      
      <glyph glyph-name="uni73" unicode="&#x73;" d="M157 38L157 219Q350 123 493 123Q578 123 634 169Q690 215 690 284Q690 385 533 451L418 500Q163 606 163 805Q163 947 263.50 1028.50Q364 1110 539 1110Q630 1110 764 1085L805 1077L805 913Q640 962 542 962Q456 962 404.50 924.50Q353 887 353 824Q353 735 497 674L592 634Q753 566 820 490.50Q887 415 887 302Q887 159 774 67Q661-25 485-25Q350-25 157 38Z"  horiz-adv-x="1044" vert-adv-y="2048"  />

      
      <glyph glyph-name="uni74" unicode="&#x74;" d="M681 0Q590-25 523-25Q373-25 289 61Q205 147 205 300L205 938L69 938L69 1086L205 1086L205 1283L402 1302L402 1086L686 1086L686 938L402 938L402 336Q402 123 586 123Q625 123 681 136L681 0Z"  horiz-adv-x="766" vert-adv-y="2048"  />

      
      <glyph glyph-name="uni75" unicode="&#x75;" d="M876 0L876 204Q719-25 495-25Q353-25 269 64.50Q185 154 185 306L185 1086L382 1086L382 370Q382 248 417.50 196.50Q453 145 536 145Q716 145 876 382L876 1086L1073 1086L1073 0L876 0Z"  horiz-adv-x="1271" vert-adv-y="2048"  />

      
      <glyph glyph-name="uni76" unicode="&#x76;" d="M422 0L18 1086L215 1086L531 241L864 1086L1048 1086L619 0L422 0Z"  horiz-adv-x="1060" vert-adv-y="2048"  />

      
      <glyph glyph-name="uni77" unicode="&#x77;" d="M323 0L12 1086L205 1086L443 245L700 1086L897 1086L1122 245L1395 1086L1564 1086L1210 0L1012 0L782 841L522 0L323 0Z"  horiz-adv-x="1578" vert-adv-y="2048"  />

      
      <glyph glyph-name="uni78" unicode="&#x78;" d="M88 0L501 561L100 1086L334 1086L651 668L938 1086L1130 1086L754 535L1163 0L929 0L602 430L286 0L88 0Z"  horiz-adv-x="1256" vert-adv-y="2048"  />

      
      <glyph glyph-name="uni79" unicode="&#x79;" d="M260-395L436 0L16 1086L229 1086L540 268L872 1086L1058 1086L465-395L260-395Z"  horiz-adv-x="1070" vert-adv-y="2048"  />

      
      <glyph glyph-name="uni7a" unicode="&#x7a;" d="M123 0L123 148L795 938L154 938L154 1086L1038 1086L1038 938L366 148L1051 148L1051 0L123 0Z"  horiz-adv-x="1174" vert-adv-y="2048"  />

      
      <glyph glyph-name="uni7b" unicode="&#x7b;" d="M25 716L74 716Q227 716 227 877Q227 945 211 1017L192 1104Q173 1190 173 1272Q173 1405 268.50 1487Q364 1569 531 1579L531 1431L503 1431Q435 1431 390 1395.50Q345 1360 345 1307Q345 1283 358 1212L375 1110Q386 1044 386 953Q386 766 239 642Q386 517 386 329Q386 239 375 173L358 71Q345 0 345-25Q345-77 390.50-112.50Q436-148 503-148L531-148L531-296Q363-286 268-203.50Q173-121 173 12Q173 94 192 179L211 266Q226 338 226 408Q226 568 74 568L25 568L25 716Z"  horiz-adv-x="666" vert-adv-y="2048"  />

      
      <glyph glyph-name="uni7c" unicode="&#x7c;" d="M333-296L333 1579L432 1579L432-296L333-296Z"  horiz-adv-x="765" vert-adv-y="2048"  />

      
      <glyph glyph-name="uni7d" unicode="&#x7d;" d="M642 568L592 568Q440 568 440 406Q440 338 456 266L475 179Q494 94 494 11Q494-122 398.50-204Q303-286 136-296L136-148L164-148Q231-148 276.50-112.50Q322-77 322-25Q322 0 309 71L292 173Q280 237 280 331Q280 516 427 642Q280 766 280 954Q280 1046 292 1110L309 1212Q322 1283 322 1309Q322 1360 276.50 1395.50Q231 1431 164 1431L136 1431L136 1579Q304 1569 399 1487Q494 1405 494 1271Q494 1190 475 1104L456 1017Q440 945 440 875Q440 716 592 716L642 716L642 568Z"  horiz-adv-x="666" vert-adv-y="2048"  />

      
      <glyph glyph-name="uni7e" unicode="&#x7e;" d="M105 444Q105 589 182 681Q259 773 381 773Q461 773 596 702L703 646L831 577Q876 555 922 555Q975 555 1009 604.50Q1043 654 1043 733L1043 740L1191 740Q1170 407 925 407Q836 407 680 487L568 545L449 607Q413 625 378 625Q323 625 288 574.50Q253 524 253 444L105 444Z"  horiz-adv-x="1295" vert-adv-y="2048"  />

      
      <glyph glyph-name="unic4" unicode="&#xc4;" d="M17 0L604 1480L812 1480L1390 0L1163 0L1002 410L375 410L212 0L17 0M436 566L941 566L689 1204L436 566M420 1604L420 1777L593 1777L593 1604L420 1604M815 1604L815 1777L988 1777L988 1604L815 1604Z"  horiz-adv-x="1413" vert-adv-y="2048"  />

      
      <glyph glyph-name="unic5" unicode="&#xc5;" d="M17 0L604 1480L812 1480L1390 0L1163 0L1002 410L375 410L212 0L17 0M436 566L941 566L689 1204L436 566M708 1604Q613 1604 547 1670Q481 1736 481 1831Q481 1925 547 1991.50Q613 2058 708 2058Q802 2058 868.50 1992Q935 1926 935 1831Q935 1736 869 1670Q803 1604 708 1604M708 1690Q767 1690 808 1731Q849 1772 849 1831Q849 1890 807.50 1931Q766 1972 708 1972Q649 1972 608 1931Q567 1890 567 1831Q567 1773 608 1731.50Q649 1690 708 1690Z"  horiz-adv-x="1413" vert-adv-y="2048"  />

      
      <glyph glyph-name="unic7" unicode="&#xc7;" d="M1303 76Q1084-37 825-37Q480-37 292 165Q104 367 104 739Q104 1110 295.50 1313.50Q487 1517 836 1517Q1034 1517 1301 1452L1301 1255Q997 1360 832 1360Q591 1360 459 1197Q327 1034 327 737Q327 453 468 290Q609 127 854 127Q1063 127 1303 256L1303 76M770 0L867 0L807-109Q884-109 942.50-156.50Q1001-204 1001-267Q1001-336 942.50-384Q884-432 800-432Q728-432 654-411L654-330Q700-345 759-345Q862-345 862-271Q862-175 675-175L770 0Z"  horiz-adv-x="1417" vert-adv-y="2048"  />

      
      <glyph glyph-name="unic9" unicode="&#xc9;" d="M191 0L191 1480L1018 1480L1018 1323L401 1323L401 848L918 848L918 693L401 693L401 157L1061 157L1061 0L191 0M456 1604L697 1925L925 1925L604 1604L456 1604Z"  horiz-adv-x="1110" vert-adv-y="2048"  />

      
      <glyph glyph-name="unid1" unicode="&#xd1;" d="M191 0L191 1480L397 1480L1142 337L1142 1480L1322 1480L1322 0L1117 0L371 1143L371 0L191 0M448 1604Q459 1838 633 1838Q706 1838 768 1800L828 1763Q884 1728 913 1728Q982 1728 991 1838L1114 1838Q1103 1604 929 1604Q856 1604 794 1643L734 1680Q678 1714 649 1714Q580 1714 571 1604L448 1604Z"  horiz-adv-x="1513" vert-adv-y="2048"  />

      
      <glyph glyph-name="unid6" unicode="&#xd6;" d="M796-37Q481-37 292.50 174.50Q104 386 104 740Q104 1094 292.50 1305.50Q481 1517 796 1517Q1111 1517 1299.50 1305.50Q1488 1094 1488 740Q1488 386 1299.50 174.50Q1111-37 796-37M796 120Q1017 120 1141 284.50Q1265 449 1265 742Q1265 1033 1141 1196.50Q1017 1360 796 1360Q575 1360 451 1196.50Q327 1033 327 742Q327 449 451 284.50Q575 120 796 120M512 1604L512 1777L685 1777L685 1604L512 1604M907 1604L907 1777L1080 1777L1080 1604L907 1604Z"  horiz-adv-x="1591" vert-adv-y="2048"  />

      
      <glyph glyph-name="unidc" unicode="&#xdc;" d="M179 1480L389 1480L389 546Q389 323 471.50 221.50Q554 120 734 120Q910 120 983.50 215.50Q1057 311 1057 539L1057 1480L1241 1480L1241 542Q1241 348 1203 244Q1165 140 1066 61Q942-37 725-37Q444-37 311.50 105Q179 247 179 548L179 1480M426 1604L426 1777L599 1777L599 1604L426 1604M821 1604L821 1777L994 1777L994 1604L821 1604Z"  horiz-adv-x="1419" vert-adv-y="2048"  />

      
      <glyph glyph-name="unie1" unicode="&#xe1;" d="M757 138Q580-25 416-25Q281-25 192 59.50Q103 144 103 273Q103 451 252.50 546.50Q402 642 682 642L728 642L728 773Q728 962 531 962Q378 962 197 866L197 1029Q396 1110 572 1110Q753 1110 839 1027.50Q925 945 925 773L925 281Q925 112 1029 112Q1042 112 1067 116L1081 7Q1014-25 933-25Q795-25 757 138M728 245L728 526L665 528Q501 528 400.50 467Q300 406 300 305Q300 234 350 185Q400 136 472 136Q595 136 728 245M426 1283L667 1604L895 1604L574 1283L426 1283Z"  horiz-adv-x="1131" vert-adv-y="2048"  />

      
      <glyph glyph-name="unie0" unicode="&#xe0;" d="M757 138Q580-25 416-25Q281-25 192 59.50Q103 144 103 273Q103 451 252.50 546.50Q402 642 682 642L728 642L728 773Q728 962 531 962Q378 962 197 866L197 1029Q396 1110 572 1110Q753 1110 839 1027.50Q925 945 925 773L925 281Q925 112 1029 112Q1042 112 1067 116L1081 7Q1014-25 933-25Q795-25 757 138M728 245L728 526L665 528Q501 528 400.50 467Q300 406 300 305Q300 234 350 185Q400 136 472 136Q595 136 728 245M723 1283L575 1283L254 1604L482 1604L723 1283Z"  horiz-adv-x="1131" vert-adv-y="2048"  />

      
      <glyph glyph-name="unie2" unicode="&#xe2;" d="M757 138Q580-25 416-25Q281-25 192 59.50Q103 144 103 273Q103 451 252.50 546.50Q402 642 682 642L728 642L728 773Q728 962 531 962Q378 962 197 866L197 1029Q396 1110 572 1110Q753 1110 839 1027.50Q925 945 925 773L925 281Q925 112 1029 112Q1042 112 1067 116L1081 7Q1014-25 933-25Q795-25 757 138M728 245L728 526L665 528Q501 528 400.50 467Q300 406 300 305Q300 234 350 185Q400 136 472 136Q595 136 728 245M220 1283L461 1604L679 1604L920 1283L772 1283L569 1485L368 1283L220 1283Z"  horiz-adv-x="1131" vert-adv-y="2048"  />

      
      <glyph glyph-name="unie4" unicode="&#xe4;" d="M757 138Q580-25 416-25Q281-25 192 59.50Q103 144 103 273Q103 451 252.50 546.50Q402 642 682 642L728 642L728 773Q728 962 531 962Q378 962 197 866L197 1029Q396 1110 572 1110Q753 1110 839 1027.50Q925 945 925 773L925 281Q925 112 1029 112Q1042 112 1067 116L1081 7Q1014-25 933-25Q795-25 757 138M728 245L728 526L665 528Q501 528 400.50 467Q300 406 300 305Q300 234 350 185Q400 136 472 136Q595 136 728 245M284 1283L284 1456L457 1456L457 1283L284 1283M679 1283L679 1456L852 1456L852 1283L679 1283Z"  horiz-adv-x="1131" vert-adv-y="2048"  />

      
      <glyph glyph-name="unie3" unicode="&#xe3;" d="M757 138Q580-25 416-25Q281-25 192 59.50Q103 144 103 273Q103 451 252.50 546.50Q402 642 682 642L728 642L728 773Q728 962 531 962Q378 962 197 866L197 1029Q396 1110 572 1110Q753 1110 839 1027.50Q925 945 925 773L925 281Q925 112 1029 112Q1042 112 1067 116L1081 7Q1014-25 933-25Q795-25 757 138M728 245L728 526L665 528Q501 528 400.50 467Q300 406 300 305Q300 234 350 185Q400 136 472 136Q595 136 728 245M234 1283Q245 1517 419 1517Q492 1517 554 1479L614 1442Q670 1407 699 1407Q768 1407 777 1517L900 1517Q889 1283 715 1283Q642 1283 580 1322L520 1359Q464 1393 435 1393Q366 1393 357 1283L234 1283Z"  horiz-adv-x="1131" vert-adv-y="2048"  />

      
      <glyph glyph-name="unie5" unicode="&#xe5;" d="M757 138Q580-25 416-25Q281-25 192 59.50Q103 144 103 273Q103 451 252.50 546.50Q402 642 682 642L728 642L728 773Q728 962 531 962Q378 962 197 866L197 1029Q396 1110 572 1110Q753 1110 839 1027.50Q925 945 925 773L925 281Q925 112 1029 112Q1042 112 1067 116L1081 7Q1014-25 933-25Q795-25 757 138M728 245L728 526L665 528Q501 528 400.50 467Q300 406 300 305Q300 234 350 185Q400 136 472 136Q595 136 728 245M568 1283Q473 1283 407 1349Q341 1415 341 1510Q341 1604 407 1670.50Q473 1737 568 1737Q662 1737 728.50 1671Q795 1605 795 1510Q795 1415 729 1349Q663 1283 568 1283M568 1369Q627 1369 668 1410Q709 1451 709 1510Q709 1569 667.50 1610Q626 1651 568 1651Q509 1651 468 1610Q427 1569 427 1510Q427 1452 468 1410.50Q509 1369 568 1369Z"  horiz-adv-x="1131" vert-adv-y="2048"  />

      
      <glyph glyph-name="unie7" unicode="&#xe7;" d="M951 33Q760-25 621-25Q401-25 256 138Q111 301 111 549Q111 814 254.50 962Q398 1110 655 1110Q782 1110 939 1075L939 910Q772 959 667 959Q515 959 424 845.50Q333 732 333 543Q333 360 427 247Q521 134 673 134Q808 134 951 203L951 33M587 0L684 0L624-109Q701-109 759.50-156.50Q818-204 818-267Q818-336 759.50-384Q701-432 617-432Q545-432 471-411L471-330Q517-345 576-345Q679-345 679-271Q679-175 492-175L587 0Z"  horiz-adv-x="1049" vert-adv-y="2048"  />

      
      <glyph glyph-name="unie9" unicode="&#xe9;" d="M993 35Q795-25 654-25Q413-25 262 134.50Q111 294 111 548Q111 795 244.50 953Q378 1111 586 1111Q783 1111 890.50 970.50Q998 830 998 572L997 512L312 512Q355 125 691 125Q814 125 993 191L993 35M321 660L800 660Q800 963 574 963Q347 963 321 660M421 1283L662 1604L890 1604L569 1283L421 1283Z"  horiz-adv-x="1141" vert-adv-y="2048"  />

      
      <glyph glyph-name="unie8" unicode="&#xe8;" d="M993 35Q795-25 654-25Q413-25 262 134.50Q111 294 111 548Q111 795 244.50 953Q378 1111 586 1111Q783 1111 890.50 970.50Q998 830 998 572L997 512L312 512Q355 125 691 125Q814 125 993 191L993 35M321 660L800 660Q800 963 574 963Q347 963 321 660M717 1283L569 1283L248 1604L476 1604L717 1283Z"  horiz-adv-x="1141" vert-adv-y="2048"  />

      
      <glyph glyph-name="uniea" unicode="&#xea;" d="M993 35Q795-25 654-25Q413-25 262 134.50Q111 294 111 548Q111 795 244.50 953Q378 1111 586 1111Q783 1111 890.50 970.50Q998 830 998 572L997 512L312 512Q355 125 691 125Q814 125 993 191L993 35M321 660L800 660Q800 963 574 963Q347 963 321 660M235 1283L476 1604L694 1604L935 1283L787 1283L584 1485L383 1283L235 1283Z"  horiz-adv-x="1141" vert-adv-y="2048"  />

      
      <glyph glyph-name="unieb" unicode="&#xeb;" d="M993 35Q795-25 654-25Q413-25 262 134.50Q111 294 111 548Q111 795 244.50 953Q378 1111 586 1111Q783 1111 890.50 970.50Q998 830 998 572L997 512L312 512Q355 125 691 125Q814 125 993 191L993 35M321 660L800 660Q800 963 574 963Q347 963 321 660M308 1283L308 1456L481 1456L481 1283L308 1283M703 1283L703 1456L876 1456L876 1283L703 1283Z"  horiz-adv-x="1141" vert-adv-y="2048"  />

      
      <glyph glyph-name="unied" unicode="&#xed;" d="M197 0L197 1086L394 1086L394 0L197 0M148 1283L389 1604L617 1604L296 1283L148 1283Z"  horiz-adv-x="592" vert-adv-y="2048"  />

      
      <glyph glyph-name="uniec" unicode="&#xec;" d="M197 0L197 1086L394 1086L394 0L197 0M444 1283L296 1283L-25 1604L203 1604L444 1283Z"  horiz-adv-x="592" vert-adv-y="2048"  />

      
      <glyph glyph-name="uniee" unicode="&#xee;" d="M197 0L197 1086L394 1086L394 0L197 0M-54 1283L187 1604L405 1604L646 1283L498 1283L295 1485L94 1283L-54 1283Z"  horiz-adv-x="592" vert-adv-y="2048"  />

      
      <glyph glyph-name="unief" unicode="&#xef;" d="M197 0L197 1086L394 1086L394 0L197 0M12 1283L12 1456L185 1456L185 1283L12 1283M407 1283L407 1456L580 1456L580 1283L407 1283Z"  horiz-adv-x="592" vert-adv-y="2048"  />

      
      <glyph glyph-name="unif1" unicode="&#xf1;" d="M197 0L197 1086L394 1086L394 882Q550 1110 776 1110Q918 1110 1001.50 1020.50Q1085 931 1085 780L1085 0L888 0L888 716Q888 837 852.50 888.50Q817 940 735 940Q554 940 394 703L394 0L197 0M333 1283Q344 1517 518 1517Q591 1517 653 1479L713 1442Q769 1407 798 1407Q867 1407 876 1517L999 1517Q988 1283 814 1283Q741 1283 679 1322L619 1359Q563 1393 534 1393Q465 1393 456 1283L333 1283Z"  horiz-adv-x="1271" vert-adv-y="2048"  />

      
      <glyph glyph-name="unif3" unicode="&#xf3;" d="M629-25Q390-25 250.50 128Q111 281 111 543Q111 805 250.50 957.50Q390 1110 629 1110Q868 1110 1007.50 957.50Q1147 805 1147 543Q1147 281 1007.50 128Q868-25 629-25M629 123Q776 123 857 233Q938 343 938 543Q938 743 857 852.50Q776 962 629 962Q482 962 401.50 852.50Q321 743 321 543Q321 343 401.50 233Q482 123 629 123M481 1283L722 1604L950 1604L629 1283L481 1283Z"  horiz-adv-x="1258" vert-adv-y="2048"  />

      
      <glyph glyph-name="unif2" unicode="&#xf2;" d="M629-25Q390-25 250.50 128Q111 281 111 543Q111 805 250.50 957.50Q390 1110 629 1110Q868 1110 1007.50 957.50Q1147 805 1147 543Q1147 281 1007.50 128Q868-25 629-25M629 123Q776 123 857 233Q938 343 938 543Q938 743 857 852.50Q776 962 629 962Q482 962 401.50 852.50Q321 743 321 543Q321 343 401.50 233Q482 123 629 123M777 1283L629 1283L308 1604L536 1604L777 1283Z"  horiz-adv-x="1258" vert-adv-y="2048"  />

      
      <glyph glyph-name="unif4" unicode="&#xf4;" d="M629-25Q390-25 250.50 128Q111 281 111 543Q111 805 250.50 957.50Q390 1110 629 1110Q868 1110 1007.50 957.50Q1147 805 1147 543Q1147 281 1007.50 128Q868-25 629-25M629 123Q776 123 857 233Q938 343 938 543Q938 743 857 852.50Q776 962 629 962Q482 962 401.50 852.50Q321 743 321 543Q321 343 401.50 233Q482 123 629 123M279 1283L520 1604L738 1604L979 1283L831 1283L628 1485L427 1283L279 1283Z"  horiz-adv-x="1258" vert-adv-y="2048"  />

      
      <glyph glyph-name="unif6" unicode="&#xf6;" d="M629-25Q390-25 250.50 128Q111 281 111 543Q111 805 250.50 957.50Q390 1110 629 1110Q868 1110 1007.50 957.50Q1147 805 1147 543Q1147 281 1007.50 128Q868-25 629-25M629 123Q776 123 857 233Q938 343 938 543Q938 743 857 852.50Q776 962 629 962Q482 962 401.50 852.50Q321 743 321 543Q321 343 401.50 233Q482 123 629 123M345 1283L345 1456L518 1456L518 1283L345 1283M740 1283L740 1456L913 1456L913 1283L740 1283Z"  horiz-adv-x="1258" vert-adv-y="2048"  />

      
      <glyph glyph-name="unif5" unicode="&#xf5;" d="M629-25Q390-25 250.50 128Q111 281 111 543Q111 805 250.50 957.50Q390 1110 629 1110Q868 1110 1007.50 957.50Q1147 805 1147 543Q1147 281 1007.50 128Q868-25 629-25M629 123Q776 123 857 233Q938 343 938 543Q938 743 857 852.50Q776 962 629 962Q482 962 401.50 852.50Q321 743 321 543Q321 343 401.50 233Q482 123 629 123M296 1283Q307 1517 481 1517Q554 1517 616 1479L676 1442Q732 1407 761 1407Q830 1407 839 1517L962 1517Q951 1283 777 1283Q704 1283 642 1322L582 1359Q526 1393 497 1393Q428 1393 419 1283L296 1283Z"  horiz-adv-x="1258" vert-adv-y="2048"  />

      
      <glyph glyph-name="unifa" unicode="&#xfa;" d="M876 0L876 204Q719-25 495-25Q353-25 269 64.50Q185 154 185 306L185 1086L382 1086L382 370Q382 248 417.50 196.50Q453 145 536 145Q716 145 876 382L876 1086L1073 1086L1073 0L876 0M481 1283L722 1604L950 1604L629 1283L481 1283Z"  horiz-adv-x="1271" vert-adv-y="2048"  />

      
      <glyph glyph-name="unif9" unicode="&#xf9;" d="M876 0L876 204Q719-25 495-25Q353-25 269 64.50Q185 154 185 306L185 1086L382 1086L382 370Q382 248 417.50 196.50Q453 145 536 145Q716 145 876 382L876 1086L1073 1086L1073 0L876 0M777 1283L629 1283L308 1604L536 1604L777 1283Z"  horiz-adv-x="1271" vert-adv-y="2048"  />

      
      <glyph glyph-name="unifb" unicode="&#xfb;" d="M876 0L876 204Q719-25 495-25Q353-25 269 64.50Q185 154 185 306L185 1086L382 1086L382 370Q382 248 417.50 196.50Q453 145 536 145Q716 145 876 382L876 1086L1073 1086L1073 0L876 0M279 1283L520 1604L738 1604L979 1283L831 1283L628 1485L427 1283L279 1283Z"  horiz-adv-x="1271" vert-adv-y="2048"  />

      
      <glyph glyph-name="unifc" unicode="&#xfc;" d="M876 0L876 204Q719-25 495-25Q353-25 269 64.50Q185 154 185 306L185 1086L382 1086L382 370Q382 248 417.50 196.50Q453 145 536 145Q716 145 876 382L876 1086L1073 1086L1073 0L876 0M345 1283L345 1456L518 1456L518 1283L345 1283M740 1283L740 1456L913 1456L913 1283L740 1283Z"  horiz-adv-x="1271" vert-adv-y="2048"  />

      
      <glyph glyph-name="uni2020" unicode="&#x2020;" d="M549-296L573 839L228 814L228 962L573 938L549 1480L746 1480L721 938L1067 962L1067 814L721 839L746-296L549-296Z"  horiz-adv-x="1295" vert-adv-y="2048"  />

      
      <glyph glyph-name="unib0" unicode="&#xb0;" d="M286 1073Q193 1073 128.50 1138Q64 1203 64 1296Q64 1389 128.50 1453Q193 1517 286 1517Q379 1517 443.50 1452.50Q508 1388 508 1296Q508 1203 443.50 1138Q379 1073 286 1073M286 1172Q336 1172 372.50 1209Q409 1246 409 1295Q409 1345 372.50 1382Q336 1419 286 1419Q237 1419 200 1382Q163 1345 163 1295Q163 1246 200 1209Q237 1172 286 1172Z"  horiz-adv-x="567" vert-adv-y="2048"  />

      
      <glyph glyph-name="unia2" unicode="&#xa2;" d="M663 0L663 173Q460 193 332.50 350Q205 507 205 738Q205 974 325 1120Q445 1266 663 1295L663 1480L762 1480L762 1295Q895 1289 1046 1249L1046 1083Q869 1143 762 1153L762 313Q898 313 1046 381L1046 231Q897 173 762 173L762 0L663 0M663 324L663 1144Q421 1121 421 732Q421 402 663 324Z"  horiz-adv-x="1295" vert-adv-y="2048"  />

      
      <glyph glyph-name="unia3" unicode="&#xa3;" d="M247 0L247 173Q457 240 457 489L457 716L278 716L278 864L457 864L457 1079Q457 1292 558.50 1404.50Q660 1517 850 1517Q954 1517 1077 1487L1077 1320Q953 1369 838 1369Q741 1369 697.50 1315Q654 1261 654 1139L654 864L870 864L870 716L654 716L654 589Q654 431 618 344Q582 257 481 173L1092 173L1092 0L247 0Z"  horiz-adv-x="1295" vert-adv-y="2048"  />

      
      <glyph glyph-name="unia7" unicode="&#xa7;" d="M221-260L221-80Q463-185 632-185Q761-185 841.50-135Q922-85 922-5Q922 62 879 101Q836 140 692 202L515 277Q226 401 226 613Q226 764 372 912Q231 1006 231 1153Q231 1317 360.50 1417Q490 1517 701 1517Q851 1517 1046 1470L1046 1310Q844 1369 698 1369Q569 1369 489.50 1318Q410 1267 410 1184Q410 1124 449 1084.50Q488 1045 585 1006L721 951Q928 868 1007.50 788.50Q1087 709 1087 585Q1087 443 938 277Q1102 182 1102 9Q1102-148 968.50-241Q835-334 611-334Q455-334 221-260M840 341Q914 440 914 535Q914 607 866.50 653.50Q819 700 694 753L472 846Q398 756 398 661Q398 527 627 431L840 341Z"  horiz-adv-x="1295" vert-adv-y="2048"  />

      
      <glyph glyph-name="uni2022" unicode="&#x2022;" d="M648 401Q571 401 517 455Q463 509 463 586Q463 663 517 717Q571 771 648 771Q725 771 779 717Q833 663 833 586Q833 509 779 455Q725 401 648 401Z"  horiz-adv-x="1295" vert-adv-y="2048"  />

      
      <glyph glyph-name="unib6" unicode="&#xb6;" d="M635-296L635 740Q438 754 327 863.50Q216 973 216 1154Q216 1309 302 1395Q388 1480 635 1480L1030 1480L1030-296L907-296L907 1357L759 1357L759-296L635-296Z"  horiz-adv-x="1295" vert-adv-y="2048"  />

      
      <glyph glyph-name="unidf" unicode="&#xdf;" d="M197 0L197 1151Q197 1398 280.50 1501Q364 1604 564 1604Q730 1604 829 1532Q928 1460 928 1340Q928 1218 797 1045Q720 944 720 904Q720 843 830 749L991 613Q1164 467 1164 299Q1164 149 1070 62Q976-25 816-25Q675-25 534 33L534 202Q717 123 816 123Q890 123 934 166Q978 209 978 281Q978 332 955 369Q932 406 863 465L672 629Q547 737 547 848Q547 932 647 1086Q730 1213 730 1305Q730 1456 560 1456Q394 1456 394 1234L394 0L197 0Z"  horiz-adv-x="1225" vert-adv-y="2048"  />

      
      <glyph glyph-name="uniae" unicode="&#xae;" d="M648 629Q464 629 334 759Q204 889 204 1073Q204 1258 334 1387.50Q464 1517 648 1517Q833 1517 962.50 1387.50Q1092 1258 1092 1073Q1092 889 962 759Q832 629 648 629M648 728Q789 728 891.50 830Q994 932 994 1073Q994 1215 892 1317Q790 1419 648 1419Q507 1419 405 1317Q303 1215 303 1073Q303 932 405 830Q507 728 648 728M469 802L469 1332L623 1332Q827 1332 827 1194Q827 1097 718 1039L842 802L729 802L616 1018L568 1018L568 802L469 802M568 1092L611 1092Q716 1092 716 1185Q716 1259 615 1259L568 1259L568 1092Z"  horiz-adv-x="1295" vert-adv-y="2048"  />

      
      <glyph glyph-name="unia9" unicode="&#xa9;" d="M876-37Q555-37 327 191Q99 419 99 740Q99 1062 327 1289.50Q555 1517 876 1517Q1198 1517 1425.50 1289.50Q1653 1062 1653 740Q1653 419 1425.50 191Q1198-37 876-37M876 74Q1194 74 1385 313Q1542 510 1542 740Q1542 972 1385 1167Q1193 1406 876 1406Q559 1406 367 1167Q210 972 210 740Q210 510 367 313Q558 74 876 74M1160 345Q1019 296 905 296Q716 296 595.50 419Q475 542 475 735Q475 937 593 1057.50Q711 1178 908 1178Q1000 1178 1134 1152L1160 1147L1160 1024Q1024 1080 916 1080Q784 1080 703.50 986Q623 892 623 739Q623 586 706.50 496.50Q790 407 934 407Q1047 407 1160 469L1160 345Z"  horiz-adv-x="1752" vert-adv-y="2048"  />

      
      <glyph glyph-name="uni2122" unicode="&#x2122;" d="M314 740L314 1379L49 1379L49 1480L734 1480L734 1379L468 1379L468 740L314 740M857 740L857 1480L1061 1480L1240 960L1423 1480L1602 1480L1602 740L1458 740L1458 1299L1279 790L1155 790L978 1306L978 740L857 740Z"  horiz-adv-x="1653" vert-adv-y="2048"  />

      
      <glyph glyph-name="unib4" unicode="&#xb4;" d="M395 1283L636 1604L864 1604L543 1283L395 1283Z"  horiz-adv-x="1258" vert-adv-y="2048"  />

      
      <glyph glyph-name="unia8" unicode="&#xa8;" d="M345 1283L345 1456L518 1456L518 1283L345 1283M740 1283L740 1456L913 1456L913 1283L740 1283Z"  horiz-adv-x="1258" vert-adv-y="2048"  />

      
      <glyph glyph-name="uni2260" unicode="&#x2260;" d="M581 49L684 358L222 358L222 456L717 456L808 728L222 728L222 827L840 827L943 1135L1047 1135L944 827L1406 827L1406 728L911 728L821 456L1406 456L1406 358L788 358L685 49L581 49Z"  horiz-adv-x="1628" vert-adv-y="2048"  />

      
      <glyph glyph-name="unic6" unicode="&#xc6;" d="M18 0L879 1480L1762 1480L1762 1323L1144 1323L1144 848L1662 848L1662 693L1144 693L1144 157L1808 157L1808 0L934 0L934 414L451 414L210 0L18 0M540 569L934 569L934 1240L540 569Z"  horiz-adv-x="1857" vert-adv-y="2048"  />

      
      <glyph glyph-name="unid8" unicode="&#xd8;" d="M1097 1247Q978 1360 795 1360Q575 1360 451 1196.50Q327 1033 327 742Q327 509 410 349L1097 1247M495 234Q614 120 798 120Q1017 120 1141 284Q1265 448 1265 739Q1265 974 1182 1132L495 234M115-37L284 184Q104 401 104 741Q104 1095 292.50 1306Q481 1517 795 1517Q1032 1517 1208 1391L1305 1517L1477 1517L1308 1297Q1488 1081 1488 738Q1488 387 1299.50 175Q1111-37 799-37Q554-37 384 89L288-37L115-37Z"  horiz-adv-x="1591" vert-adv-y="2048"  />

      
      <glyph glyph-name="uni221E" unicode="&#x221E;" d="M944 495Q778 172 562 172Q422 172 322 288Q222 404 222 567Q222 751 327 881.50Q432 1012 581 1012Q694 1012 782.50 939.50Q871 867 990 678Q1174 1012 1362 1012Q1504 1012 1603.50 893.50Q1703 775 1703 607Q1703 423 1599 298Q1495 173 1344 173Q1231 173 1145.50 242Q1060 311 944 495M901 548Q697 860 555 860Q464 860 397.50 767.50Q331 675 331 547Q331 428 400 348.50Q469 269 572 269Q756 269 901 548M1032 626Q1236 316 1372 316Q1459 316 1527.50 409Q1596 502 1596 621Q1596 742 1525 824Q1454 906 1349 906Q1178 906 1032 626Z"  horiz-adv-x="1925" vert-adv-y="2048"  />

      
      <glyph glyph-name="unib1" unicode="&#xb1;" d="M222 0L222 99L1406 99L1406 0L222 0M765 296L765 691L222 691L222 790L765 790L765 1184L864 1184L864 790L1406 790L1406 691L864 691L864 296L765 296Z"  horiz-adv-x="1628" vert-adv-y="2048"  />

      
      <glyph glyph-name="uni2264" unicode="&#x2264;" d="M222 0L222 99L1406 99L1406 0L222 0M1406 1184L1406 1078L490 710L1406 343L1406 237L222 711L1406 1184Z"  horiz-adv-x="1628" vert-adv-y="2048"  />

      
      <glyph glyph-name="uni2265" unicode="&#x2265;" d="M1406 0L222 0L222 99L1406 99L1406 0M222 1184L1406 711L222 237L222 343L1139 712L222 1078L222 1184Z"  horiz-adv-x="1628" vert-adv-y="2048"  />

      
      <glyph glyph-name="unia5" unicode="&#xa5;" d="M543 0L543 345L247 345L247 493L543 493L543 592L247 592L247 740L543 740L80 1480L313 1480L673 905L1061 1480L1240 1480L740 740L1036 740L1036 592L740 592L740 493L1036 493L1036 345L740 345L740 0L543 0Z"  horiz-adv-x="1295" vert-adv-y="2048"  />

      
      <glyph glyph-name="unib5" unicode="&#xb5;" d="M197-395L197 1086L394 1086L394 370Q394 160 576 160Q741 160 888 382L888 1086L1085 1086L1085 0L888 0L888 204Q748-25 572-25Q470-25 394 25L394-395L197-395Z"  horiz-adv-x="1283" vert-adv-y="2048"  />

      
      <glyph glyph-name="uni2202" unicode="&#x2202;" d="M270 1293Q421 1604 687 1604Q892 1604 1006 1422Q1120 1240 1120 913Q1120 509 950 242Q780-25 523-25Q387-25 304.50 70.50Q222 166 222 323Q222 576 395 794Q568 1012 769 1012Q934 1012 1058 840Q1058 1431 622 1431Q438 1431 270 1293M1052 752Q943 955 783 955Q634 955 521 791Q408 627 408 412Q408 275 461.50 188.50Q515 102 601 102Q762 102 892 289.50Q1022 477 1052 752Z"  horiz-adv-x="1342" vert-adv-y="2048"  />

      
      <glyph glyph-name="uni2211" unicode="&#x2211;" d="M222 0L222 142L893 697L271 1388L271 1481L1389 1481L1389 1221L1278 1221L1276 1240L1271 1324Q1271 1372 1258.50 1385.50Q1246 1399 1198 1399L1100 1400L493 1400L1072 756L330 142L1092 142L1228 148Q1310 148 1315 218L1319 308L1320 327L1431 327L1431 0L222 0Z"  horiz-adv-x="1653" vert-adv-y="2048"  />

      
      <glyph glyph-name="uni220F" unicode="&#x220F;" d="M580 1400L580 259Q580 141 597.50 106.50Q615 72 678 68L746 63L765 62L765 0L222 0L222 62L240 63L308 68Q371 72 389 106.50Q407 141 407 259L407 1221Q407 1339 389 1373.50Q371 1408 308 1413L240 1418L222 1419L222 1481L1678 1481L1678 1419L1659 1418L1591 1413Q1534 1409 1518.50 1393Q1503 1377 1499 1320L1493 1221L1493 259L1499 160Q1503 103 1518.50 87.50Q1534 72 1591 68L1659 63L1678 62L1678 0L1135 0L1135 62L1153 63L1221 68Q1279 72 1294.50 87.50Q1310 103 1314 160L1320 259L1320 1400L580 1400Z"  horiz-adv-x="1900" vert-adv-y="2048"  />

      
      <glyph glyph-name="uni03C0" unicode="&#x03C0;" d="M389 0L389 913L347 913Q204 913 74 843L74 1036Q191 1086 357 1086L1524 1086L1524 913L1265 913L1265 295Q1265 127 1341 0L1133 0Q1067 144 1067 303L1067 913L586 913L586 0L389 0Z"  horiz-adv-x="1598" vert-adv-y="2048"  />

      
      <glyph glyph-name="uni222B" unicode="&#x222B;" d="M366-211Q385-224 405-224Q519-224 519 8L515 157L506 493L506 827Q506 1248 578 1432Q650 1616 814 1616Q962 1616 962 1481Q962 1376 871 1376Q785 1376 785 1461Q785 1501 817 1530Q793 1542 778 1542Q664 1542 664 1342L668 1166L675 956L678 827L678 493Q678-296 370-296Q222-296 222-161Q222-56 315-56Q397-56 397-145Q397-179 366-211Z"  horiz-adv-x="1184" vert-adv-y="2048"  />

      
      <glyph glyph-name="uniaa" unicode="&#xaa;" d="M512 1001Q414 909 314 909Q230 909 176.50 961Q123 1013 123 1093Q123 1199 210.50 1258.50Q298 1318 456 1318L503 1318L503 1387Q503 1495 384 1495Q286 1495 180 1437L180 1547Q299 1594 413 1594Q647 1594 647 1390L647 1096Q647 1007 703 1007Q712 1007 726 1010L733 927Q684 909 639 909Q540 909 512 1001M503 1081L503 1232L466 1232Q267 1232 267 1112Q267 1072 294.50 1045Q322 1018 362 1018Q430 1018 503 1081Z"  horiz-adv-x="864" vert-adv-y="2048"  />

      
      <glyph glyph-name="uniba" unicode="&#xba;" d="M449 909Q298 909 210.50 1001Q123 1093 123 1252Q123 1410 210.50 1502Q298 1594 449 1594Q599 1594 686.50 1502Q774 1410 774 1252Q774 1093 686.50 1001Q599 909 449 909M449 1009Q617 1009 617 1252Q617 1494 449 1494Q280 1494 280 1252Q280 1009 449 1009Z"  horiz-adv-x="864" vert-adv-y="2048"  />

      
      <glyph glyph-name="uni2126" unicode="&#x2126;" d="M1136 130L1295 130L1436 135Q1519 135 1524 205L1527 296L1529 315L1639 315L1639 0L1048 0L1048 130Q1383 495 1383 854Q1383 1113 1247 1278.50Q1111 1444 897 1444Q683 1444 547 1279Q411 1114 411 855Q411 493 745 130L745 0L154 0L154 315L267 314L266 296L270 206Q275 136 357 136L498 130L657 130Q400 348 295 510Q190 672 190 851Q190 1140 390 1329Q590 1518 897 1518Q1201 1518 1402.50 1330Q1604 1142 1604 858Q1604 674 1499 510.50Q1394 347 1136 130Z"  horiz-adv-x="1794" vert-adv-y="2048"  />

      
      <glyph glyph-name="unie6" unicode="&#xe6;" d="M809 193Q619-25 416-25Q281-25 192 59.50Q103 144 103 273Q103 451 252.50 546.50Q402 642 682 642L728 642L728 773Q728 962 531 962Q378 962 197 866L197 1029Q396 1110 573 1110Q765 1110 877 989Q1000 1110 1180 1110Q1598 1110 1598 512L926 512Q954 123 1291 123Q1431 123 1598 194L1598 37Q1405-25 1239-25Q954-25 809 193M728 245L728 526L665 528Q501 528 400.50 467Q300 406 300 305Q300 234 350 185Q400 136 472 136Q595 136 728 245M932 648L1388 648Q1388 963 1174 963Q957 963 932 648Z"  horiz-adv-x="1743" vert-adv-y="2048"  />

      
      <glyph glyph-name="unif8" unicode="&#xf8;" d="M111-25L238 144Q111 290 111 540Q111 804 250 957Q389 1110 629 1110Q807 1110 933 1025L1001 1110L1147 1110L1018 945L1020 941Q1147 782 1147 544Q1147 282 1008 128.50Q869-25 630-25Q456-25 326 60L259-25L111-25M895 787L432 196Q509 123 627 123Q774 123 856 232.50Q938 342 938 538Q938 674 895 787M364 298L827 888Q746 962 631 962Q484 962 402.50 852.50Q321 743 321 547Q321 402 364 298Z"  horiz-adv-x="1258" vert-adv-y="2048"  />

      
      <glyph glyph-name="unibf" unicode="&#xbf;" d="M614 1086L614 888L416 888L416 1086L614 1086M614 691L614 636Q614 525 583.50 450.50Q553 376 467 277L403 205Q247 26 247-90Q247-179 316-231.50Q385-284 503-284Q653-284 827-209L827-376Q641-432 479-432Q276-432 156.50-340.50Q37-249 37-94Q37-5 71 58Q105 121 204 214L265 273Q358 362 387 420.50Q416 479 416 580L416 691L614 691Z"  horiz-adv-x="864" vert-adv-y="2048"  />

      
      <glyph glyph-name="unia1" unicode="&#xa1;" d="M422 1086L422 888L225 888L225 1086L422 1086M398 691L422-99L422-395L225-395L225-99L250 691L398 691Z"  horiz-adv-x="648" vert-adv-y="2048"  />

      
      <glyph glyph-name="uniac" unicode="&#xac;" d="M1308 296L1308 691L222 691L222 790L1406 790L1406 296L1308 296Z"  horiz-adv-x="1628" vert-adv-y="2048"  />

      
      <glyph glyph-name="uni221A" unicode="&#x221A;" d="M205 503L177 558L442 691L837-99L1612 1838L1678 1838L864-197L776-197L382 591L205 503Z"  horiz-adv-x="1653" vert-adv-y="2048"  />

      
      <glyph glyph-name="uni0192" unicode="&#x0192;" d="M-99-387L-99-230Q33-271 113-271Q210-271 246-225Q282-179 282-53L282 938L109 938L109 1086L282 1086L282 1216Q282 1604 635 1604Q735 1604 860 1571L860 1415Q728 1456 648 1456Q551 1456 515 1409.50Q479 1363 479 1237L479 1086L751 1086L751 938L479 938L479-32Q479-419 126-419Q26-419-99-387Z"  horiz-adv-x="800" vert-adv-y="2048"  />

      
      <glyph glyph-name="uni2248" unicode="&#x2248;" d="M284 222L222 222Q237 541 483 541Q586 541 817 437L905 397Q1117 302 1177 302Q1321 302 1345 518L1406 518Q1386 199 1142 199Q1058 199 875 282L816 309L726 349Q528 438 454 438Q381 438 332.50 376Q284 314 284 222M284 666L222 666Q237 985 483 985Q587 985 817 881L905 842Q1117 746 1177 746Q1321 746 1345 962L1406 962Q1386 643 1142 643Q1059 643 875 726L816 753L726 794Q528 883 454 883Q381 883 332.50 820.50Q284 758 284 666Z"  horiz-adv-x="1628" vert-adv-y="2048"  />

      
      <glyph glyph-name="uni2206" unicode="&#x2206;" d="M222 0L222 136L901 1493L968 1493L1604 136L1604 0L222 0M303 142L1411 142L875 1284L303 142Z"  horiz-adv-x="1826" vert-adv-y="2048"  />

      
      <glyph glyph-name="uniab" unicode="&#xab;" d="M999 913L703 543L999 173L901 99L506 543L901 987L999 913M604 913L308 543L604 173L506 99L111 543L506 987L604 913Z"  horiz-adv-x="1073" vert-adv-y="2048"  />

      
      <glyph glyph-name="unibb" unicode="&#xbb;" d="M74 173L370 543L74 913L173 987L567 543L173 99L74 173M469 173L765 543L469 913L567 987L962 543L567 99L469 173Z"  horiz-adv-x="1073" vert-adv-y="2048"  />

      
      <glyph glyph-name="uni2026" unicode="&#x2026;" d="M243 0L243 197L440 197L440 0L243 0M926 0L926 197L1123 197L1123 0L926 0M1608 0L1608 197L1806 197L1806 0L1608 0Z"  horiz-adv-x="2048" vert-adv-y="2048"  />

      
      <glyph glyph-name="unic0" unicode="&#xc0;" d="M17 0L604 1480L812 1480L1390 0L1163 0L1002 410L375 410L212 0L17 0M436 566L941 566L689 1204L436 566M856 1604L708 1604L387 1925L615 1925L856 1604Z"  horiz-adv-x="1413" vert-adv-y="2048"  />

      
      <glyph glyph-name="unic3" unicode="&#xc3;" d="M17 0L604 1480L812 1480L1390 0L1163 0L1002 410L375 410L212 0L17 0M436 566L941 566L689 1204L436 566M370 1604Q381 1838 555 1838Q628 1838 690 1800L750 1763Q806 1728 835 1728Q904 1728 913 1838L1036 1838Q1025 1604 851 1604Q778 1604 716 1643L656 1680Q600 1714 571 1714Q502 1714 493 1604L370 1604Z"  horiz-adv-x="1413" vert-adv-y="2048"  />

      
      <glyph glyph-name="unid5" unicode="&#xd5;" d="M796-37Q481-37 292.50 174.50Q104 386 104 740Q104 1094 292.50 1305.50Q481 1517 796 1517Q1111 1517 1299.50 1305.50Q1488 1094 1488 740Q1488 386 1299.50 174.50Q1111-37 796-37M796 120Q1017 120 1141 284.50Q1265 449 1265 742Q1265 1033 1141 1196.50Q1017 1360 796 1360Q575 1360 451 1196.50Q327 1033 327 742Q327 449 451 284.50Q575 120 796 120M463 1604Q474 1838 648 1838Q721 1838 783 1800L843 1763Q899 1728 928 1728Q997 1728 1006 1838L1129 1838Q1118 1604 944 1604Q871 1604 809 1643L749 1680Q693 1714 664 1714Q595 1714 586 1604L463 1604Z"  horiz-adv-x="1591" vert-adv-y="2048"  />

      
      <glyph glyph-name="uni0152" unicode="&#x0152;" d="M1129 58Q973-37 782-37Q478-37 291 177.50Q104 392 104 740Q104 1093 292 1305Q480 1517 793 1517Q974 1517 1129 1423L1129 1480L1956 1480L1956 1323L1339 1323L1339 848L1856 848L1856 693L1340 692L1339 157L1999 157L1999 0L1129 0L1129 58M1129 569L1129 911Q1129 1145 1048.50 1252.50Q968 1360 793 1360Q574 1360 450.50 1195.50Q327 1031 327 740Q327 448 451 284Q575 120 796 120Q969 120 1049 228Q1129 336 1129 569Z"  horiz-adv-x="2048" vert-adv-y="2048"  />

      
      <glyph glyph-name="uni0153" unicode="&#x0153;" d="M979 174Q849-25 620-25Q388-25 249.50 129.50Q111 284 111 543Q111 802 249.50 956Q388 1110 622 1110Q840 1110 974 910Q1096 1110 1339 1110Q1756 1110 1756 512L1083 512Q1112 123 1448 123Q1588 123 1756 194L1756 37Q1563-25 1406-25Q1256-25 1156.50 21.50Q1057 68 979 174M624 123Q882 123 882 560Q882 962 624 962Q481 962 401 851.50Q321 741 321 543Q321 345 401 234Q481 123 624 123M1090 648L1546 648Q1546 963 1332 963Q1115 963 1090 648Z"  horiz-adv-x="1901" vert-adv-y="2048"  />

      
      <glyph glyph-name="uni2013" unicode="&#x2013;" d="M105 543L105 666L919 666L919 543L105 543Z"  horiz-adv-x="1024" vert-adv-y="2048"  />

      
      <glyph glyph-name="uni2014" unicode="&#x2014;" d="M99 543L99 666L1950 666L1950 543L99 543Z"  horiz-adv-x="2048" vert-adv-y="2048"  />

      
      <glyph glyph-name="uni201C" unicode="&#x201C;" d="M654 1579L654 1505Q583 1468 583 1281L583 1258L654 1258L654 1061L456 1061L456 1227Q456 1530 654 1579M308 1579L308 1505Q238 1468 238 1281L238 1258L308 1258L308 1061L111 1061L111 1227Q111 1530 308 1579Z"  horiz-adv-x="765" vert-adv-y="2048"  />

      
      <glyph glyph-name="uni201D" unicode="&#x201D;" d="M111 1061L111 1135Q182 1172 182 1359L182 1382L111 1382L111 1579L308 1579L308 1413Q308 1110 111 1061M456 1061L456 1135Q527 1172 527 1359L527 1382L456 1382L456 1579L654 1579L654 1413Q654 1110 456 1061Z"  horiz-adv-x="765" vert-adv-y="2048"  />

      
      <glyph glyph-name="uni2018" unicode="&#x2018;" d="M447 1579L447 1505Q351 1478 351 1279L351 1258L447 1258L447 1012L200 1012L200 1226Q200 1553 447 1579Z"  horiz-adv-x="648" vert-adv-y="2048"  />

      
      <glyph glyph-name="uni2019" unicode="&#x2019;" d="M200 1012L200 1086Q296 1113 296 1312L296 1332L200 1332L200 1579L447 1579L447 1365Q447 1036 200 1012Z"  horiz-adv-x="648" vert-adv-y="2048"  />

      
      <glyph glyph-name="unif7" unicode="&#xf7;" d="M715 99L715 296L913 296L913 99L715 99M222 543L222 642L1406 642L1406 543L222 543M715 888L715 1086L913 1086L913 888L715 888Z"  horiz-adv-x="1628" vert-adv-y="2048"  />

      
      <glyph glyph-name="uni25CA" unicode="&#x25CA;" d="M772-37L222 740L772 1517L1321 740L772-37M772 133L1201 740L772 1347L342 740L772 133Z"  horiz-adv-x="1543" vert-adv-y="2048"  />

      
      <glyph glyph-name="uniff" unicode="&#xff;" d="M260-395L436 0L16 1086L229 1086L540 268L872 1086L1058 1086L465-395L260-395M266 1283L266 1456L439 1456L439 1283L266 1283M661 1283L661 1456L834 1456L834 1283L661 1283Z"  horiz-adv-x="1070" vert-adv-y="2048"  />

      
      <glyph glyph-name="uni0178" unicode="&#x0178;" d="M511 0L511 618L17 1480L257 1480L641 812L1055 1480L1250 1480L721 622L721 0L511 0M350 1604L350 1777L523 1777L523 1604L350 1604M745 1604L745 1777L918 1777L918 1604L745 1604Z"  horiz-adv-x="1276" vert-adv-y="2048"  />

      
      <glyph glyph-name="uni2215" unicode="&#x2215;" d="M222-296L748 1481L852 1481L326-296L222-296Z"  horiz-adv-x="1074" vert-adv-y="2048"  />

      
      <glyph glyph-name="unia4" unicode="&#xa4;" d="M380 386L185 191L98 278L293 473Q203 592 203 740Q203 888 293 1007L98 1203L185 1290L380 1095Q505 1184 647 1184Q789 1184 914 1095L1109 1290L1197 1203L1002 1007Q1091 888 1091 740Q1091 592 1002 473L1197 278L1109 191L914 386Q789 296 647 296Q505 296 380 386M647 444Q772 444 857.50 529.50Q943 615 943 740Q943 865 857.50 950.50Q772 1036 647 1036Q522 1036 436.50 950.50Q351 865 351 740Q351 615 436.50 529.50Q522 444 647 444Z"  horiz-adv-x="1296" vert-adv-y="2048"  />

      
      <glyph glyph-name="uni2039" unicode="&#x2039;" d="M604 913L308 543L604 173L506 99L111 543L506 987L604 913Z"  horiz-adv-x="679" vert-adv-y="2048"  />

      
      <glyph glyph-name="uni203A" unicode="&#x203A;" d="M74 173L370 543L74 913L173 987L567 543L173 99L74 173Z"  horiz-adv-x="679" vert-adv-y="2048"  />

      
      <glyph glyph-name="uni2021" unicode="&#x2021;" d="M549-296L573 247L228 222L228 370L573 345L573 839L228 814L228 962L573 938L549 1480L746 1480L721 938L1067 962L1067 814L721 839L721 345L1067 370L1067 222L721 247L746-296L549-296Z"  horiz-adv-x="1295" vert-adv-y="2048"  />

      
      <glyph glyph-name="uni2219" unicode="&#x2219;" d="M222 592Q222 738 325 841Q428 944 574 944Q720 944 823 841Q926 738 926 592Q926 446 823 343Q720 240 574 240Q428 240 325 343Q222 446 222 592Z"  horiz-adv-x="1148" vert-adv-y="2048"  />

      
      <glyph glyph-name="uni201A" unicode="&#x201A;" d="M200-296L200-222Q296-195 296-20L296 0L200 0L200 247L447 247L447 33Q447-270 200-296Z"  horiz-adv-x="648" vert-adv-y="2048"  />

      
      <glyph glyph-name="uni201E" unicode="&#x201E;" d="M111-321L111-247Q182-210 182-23L182 0L111 0L111 197L308 197L308 31Q308-272 111-321M456-321L456-247Q527-210 527-23L527 0L456 0L456 197L654 197L654 31Q654-272 456-321Z"  horiz-adv-x="765" vert-adv-y="2048"  />

      
      <glyph glyph-name="uni2030" unicode="&#x2030;" d="M24-37L1190 1517L1344 1517L179-37L24-37M327 740Q182 740 97 840Q12 940 12 1110Q12 1281 97 1380.50Q182 1480 327 1480Q471 1480 556 1380.50Q641 1281 641 1110Q641 940 556 840Q471 740 327 740M327 839Q403 839 448 912.50Q493 986 493 1110Q493 1235 448 1308.50Q403 1382 327 1382Q250 1382 205 1308.50Q160 1235 160 1110Q160 986 205 912.50Q250 839 327 839M1042 0Q897 0 812.50 100Q728 200 728 370Q728 540 812.50 640Q897 740 1042 740Q1187 740 1272 640Q1357 540 1357 370Q1357 200 1272 100Q1187 0 1042 0M1042 99Q1119 99 1164 172Q1209 245 1209 370Q1209 495 1164 568.50Q1119 642 1042 642Q966 642 921 568.50Q876 495 876 370Q876 245 921 172Q966 99 1042 99M1745 0Q1601 0 1516 100Q1431 200 1431 370Q1431 540 1516 640Q1601 740 1745 740Q1890 740 1975 640Q2060 540 2060 370Q2060 200 1975 100Q1890 0 1745 0M1745 99Q1822 99 1867 172Q1912 245 1912 370Q1912 495 1867 568.50Q1822 642 1745 642Q1669 642 1624 568.50Q1579 495 1579 370Q1579 245 1624 172Q1669 99 1745 99Z"  horiz-adv-x="2073" vert-adv-y="2048"  />

      
      <glyph glyph-name="unic2" unicode="&#xc2;" d="M17 0L604 1480L812 1480L1390 0L1163 0L1002 410L375 410L212 0L17 0M436 566L941 566L689 1204L436 566M358 1604L599 1925L817 1925L1058 1604L910 1604L707 1806L506 1604L358 1604Z"  horiz-adv-x="1413" vert-adv-y="2048"  />

      
      <glyph glyph-name="unica" unicode="&#xca;" d="M191 0L191 1480L1018 1480L1018 1323L401 1323L401 848L918 848L918 693L401 693L401 157L1061 157L1061 0L191 0M265 1604L506 1925L724 1925L965 1604L817 1604L614 1806L413 1604L265 1604Z"  horiz-adv-x="1110" vert-adv-y="2048"  />

      
      <glyph glyph-name="unic1" unicode="&#xc1;" d="M17 0L604 1480L812 1480L1390 0L1163 0L1002 410L375 410L212 0L17 0M436 566L941 566L689 1204L436 566M560 1604L801 1925L1029 1925L708 1604L560 1604Z"  horiz-adv-x="1413" vert-adv-y="2048"  />

      
      <glyph glyph-name="unicb" unicode="&#xcb;" d="M191 0L191 1480L1018 1480L1018 1323L401 1323L401 848L918 848L918 693L401 693L401 157L1061 157L1061 0L191 0M342 1604L342 1777L515 1777L515 1604L342 1604M737 1604L737 1777L910 1777L910 1604L737 1604Z"  horiz-adv-x="1110" vert-adv-y="2048"  />

      
      <glyph glyph-name="unic8" unicode="&#xc8;" d="M191 0L191 1480L1018 1480L1018 1323L401 1323L401 848L918 848L918 693L401 693L401 157L1061 157L1061 0L191 0M765 1604L617 1604L296 1925L524 1925L765 1604Z"  horiz-adv-x="1110" vert-adv-y="2048"  />

      
      <glyph glyph-name="unicd" unicode="&#xcd;" d="M190 0L190 1480L400 1480L400 0L190 0M147 1604L388 1925L616 1925L295 1604L147 1604Z"  horiz-adv-x="590" vert-adv-y="2048"  />

      
      <glyph glyph-name="unice" unicode="&#xce;" d="M190 0L190 1480L400 1480L400 0L190 0M-55 1604L186 1925L404 1925L645 1604L497 1604L294 1806L93 1604L-55 1604Z"  horiz-adv-x="590" vert-adv-y="2048"  />

      
      <glyph glyph-name="unicf" unicode="&#xcf;" d="M190 0L190 1480L400 1480L400 0L190 0M11 1604L11 1777L184 1777L184 1604L11 1604M406 1604L406 1777L579 1777L579 1604L406 1604Z"  horiz-adv-x="590" vert-adv-y="2048"  />

      
      <glyph glyph-name="unicc" unicode="&#xcc;" d="M190 0L190 1480L400 1480L400 0L190 0M443 1604L295 1604L-26 1925L202 1925L443 1604Z"  horiz-adv-x="590" vert-adv-y="2048"  />

      
      <glyph glyph-name="unid3" unicode="&#xd3;" d="M796-37Q481-37 292.50 174.50Q104 386 104 740Q104 1094 292.50 1305.50Q481 1517 796 1517Q1111 1517 1299.50 1305.50Q1488 1094 1488 740Q1488 386 1299.50 174.50Q1111-37 796-37M796 120Q1017 120 1141 284.50Q1265 449 1265 742Q1265 1033 1141 1196.50Q1017 1360 796 1360Q575 1360 451 1196.50Q327 1033 327 742Q327 449 451 284.50Q575 120 796 120M648 1604L889 1925L1117 1925L796 1604L648 1604Z"  horiz-adv-x="1591" vert-adv-y="2048"  />

      
      <glyph glyph-name="unid4" unicode="&#xd4;" d="M796-37Q481-37 292.50 174.50Q104 386 104 740Q104 1094 292.50 1305.50Q481 1517 796 1517Q1111 1517 1299.50 1305.50Q1488 1094 1488 740Q1488 386 1299.50 174.50Q1111-37 796-37M796 120Q1017 120 1141 284.50Q1265 449 1265 742Q1265 1033 1141 1196.50Q1017 1360 796 1360Q575 1360 451 1196.50Q327 1033 327 742Q327 449 451 284.50Q575 120 796 120M446 1604L687 1925L905 1925L1146 1604L998 1604L795 1806L594 1604L446 1604Z"  horiz-adv-x="1591" vert-adv-y="2048"  />

      
      <glyph glyph-name="unid2" unicode="&#xd2;" d="M796-37Q481-37 292.50 174.50Q104 386 104 740Q104 1094 292.50 1305.50Q481 1517 796 1517Q1111 1517 1299.50 1305.50Q1488 1094 1488 740Q1488 386 1299.50 174.50Q1111-37 796-37M796 120Q1017 120 1141 284.50Q1265 449 1265 742Q1265 1033 1141 1196.50Q1017 1360 796 1360Q575 1360 451 1196.50Q327 1033 327 742Q327 449 451 284.50Q575 120 796 120M944 1604L796 1604L475 1925L703 1925L944 1604Z"  horiz-adv-x="1591" vert-adv-y="2048"  />

      
      <glyph glyph-name="unida" unicode="&#xda;" d="M179 1480L389 1480L389 546Q389 323 471.50 221.50Q554 120 734 120Q910 120 983.50 215.50Q1057 311 1057 539L1057 1480L1241 1480L1241 542Q1241 348 1203 244Q1165 140 1066 61Q942-37 725-37Q444-37 311.50 105Q179 247 179 548L179 1480M575 1604L816 1925L1044 1925L723 1604L575 1604Z"  horiz-adv-x="1419" vert-adv-y="2048"  />

      
      <glyph glyph-name="unidb" unicode="&#xdb;" d="M179 1480L389 1480L389 546Q389 323 471.50 221.50Q554 120 734 120Q910 120 983.50 215.50Q1057 311 1057 539L1057 1480L1241 1480L1241 542Q1241 348 1203 244Q1165 140 1066 61Q942-37 725-37Q444-37 311.50 105Q179 247 179 548L179 1480M373 1604L614 1925L832 1925L1073 1604L925 1604L722 1806L521 1604L373 1604Z"  horiz-adv-x="1419" vert-adv-y="2048"  />

      
      <glyph glyph-name="unid9" unicode="&#xd9;" d="M179 1480L389 1480L389 546Q389 323 471.50 221.50Q554 120 734 120Q910 120 983.50 215.50Q1057 311 1057 539L1057 1480L1241 1480L1241 542Q1241 348 1203 244Q1165 140 1066 61Q942-37 725-37Q444-37 311.50 105Q179 247 179 548L179 1480M871 1604L723 1604L402 1925L630 1925L871 1604Z"  horiz-adv-x="1419" vert-adv-y="2048"  />

      
      <glyph glyph-name="uni0131" unicode="&#x0131;" d="M197 0L197 1086L394 1086L394 0L197 0Z"  horiz-adv-x="592" vert-adv-y="2048"  />

      
      <glyph glyph-name="uni02C6" unicode="&#x02C6;" d="M279 1283L520 1604L738 1604L979 1283L831 1283L628 1485L427 1283L279 1283Z"  horiz-adv-x="1258" vert-adv-y="2048"  />

      
      <glyph glyph-name="uni02DC" unicode="&#x02DC;" d="M296 1283Q307 1517 481 1517Q554 1517 616 1479L676 1442Q732 1407 761 1407Q830 1407 839 1517L962 1517Q951 1283 777 1283Q704 1283 642 1322L582 1359Q526 1393 497 1393Q428 1393 419 1283L296 1283Z"  horiz-adv-x="1258" vert-adv-y="2048"  />

      
      <glyph glyph-name="uni02C9" unicode="&#x02C9;" d="M308 1283L308 1431L950 1431L950 1283L308 1283Z"  horiz-adv-x="1258" vert-adv-y="2048"  />

      
      <glyph glyph-name="uni02D8" unicode="&#x02D8;" d="M296 1579L419 1579Q451 1431 629 1431Q807 1431 839 1579L962 1579Q947 1445 856 1364Q765 1283 629 1283Q493 1283 402.50 1363.50Q312 1444 296 1579Z"  horiz-adv-x="1258" vert-adv-y="2048"  />

      
      <glyph glyph-name="uni02D9" unicode="&#x02D9;" d="M530 1283L530 1480L727 1480L727 1283L530 1283Z"  horiz-adv-x="1258" vert-adv-y="2048"  />

      
      <glyph glyph-name="uni02DA" unicode="&#x02DA;" d="M629 1283Q534 1283 468 1349Q402 1415 402 1510Q402 1604 468 1670.50Q534 1737 629 1737Q723 1737 789.50 1671Q856 1605 856 1510Q856 1415 790 1349Q724 1283 629 1283M629 1369Q688 1369 729 1410Q770 1451 770 1510Q770 1569 728.50 1610Q687 1651 629 1651Q570 1651 529 1610Q488 1569 488 1510Q488 1452 529 1410.50Q570 1369 629 1369Z"  horiz-adv-x="1258" vert-adv-y="2048"  />

      
      <glyph glyph-name="unib8" unicode="&#xb8;" d="M626 0L723 0L663-109Q740-109 798.50-156.50Q857-204 857-267Q857-336 798.50-384Q740-432 656-432Q584-432 510-411L510-330Q556-345 615-345Q718-345 718-271Q718-175 531-175L626 0Z"  horiz-adv-x="1258" vert-adv-y="2048"  />

      
      <glyph glyph-name="uni02DD" unicode="&#x02DD;" d="M237 1283L478 1604L669 1604L348 1283L237 1283M589 1283L829 1604L1020 1604L700 1283L589 1283Z"  horiz-adv-x="1258" vert-adv-y="2048"  />

      
      <glyph glyph-name="uni02DB" unicode="&#x02DB;" d="M658 0L765 0Q637-77 637-178Q637-275 750-275Q807-275 842-260L842-341Q782-370 704-370Q612-370 556-326Q500-282 500-211Q500-86 658 0Z"  horiz-adv-x="1258" vert-adv-y="2048"  />

      
      <glyph glyph-name="uni02C7" unicode="&#x02C7;" d="M979 1604L738 1283L520 1283L279 1604L427 1604L630 1402L831 1604L979 1604Z"  horiz-adv-x="1258" vert-adv-y="2048"  />

      
      <glyph glyph-name="uni0141" unicode="&#x0141;" d="M191 0L191 619L-30 499L-30 673L191 794L191 1480L400 1480L400 908L621 1028L621 853L400 734L400 157L1066 157L1066 0L191 0Z"  horiz-adv-x="1092" vert-adv-y="2048"  />

      
      <glyph glyph-name="uni0142" unicode="&#x0142;" d="M194 0L194 677L-28 560L-28 727L194 847L194 1579L391 1579L391 956L614 1068L614 903L391 786L391 0L194 0Z"  horiz-adv-x="592" vert-adv-y="2048"  />

      
      <glyph glyph-name="uni0160" unicode="&#x0160;" d="M100 28L100 236Q350 120 512 120Q635 120 710.50 185.50Q786 251 786 356Q786 443 736.50 504Q687 565 554 640L452 699Q263 807 185.50 902.50Q108 998 108 1124Q108 1296 232 1406.50Q356 1517 548 1517Q719 1517 909 1460L909 1268Q675 1360 560 1360Q451 1360 380 1302Q309 1244 309 1156Q309 1082 361 1025Q413 968 551 889L657 829Q849 720 925 623Q1001 526 1001 390Q1001 197 859 80Q717-37 482-37Q332-37 100 28M924 1925L683 1604L465 1604L224 1925L372 1925L575 1723L776 1925L924 1925Z"  horiz-adv-x="1103" vert-adv-y="2048"  />

      
      <glyph glyph-name="uni0161" unicode="&#x0161;" d="M157 38L157 219Q350 123 493 123Q578 123 634 169Q690 215 690 284Q690 385 533 451L418 500Q163 606 163 805Q163 947 263.50 1028.50Q364 1110 539 1110Q630 1110 764 1085L805 1077L805 913Q640 962 542 962Q456 962 404.50 924.50Q353 887 353 824Q353 735 497 674L592 634Q753 566 820 490.50Q887 415 887 302Q887 159 774 67Q661-25 485-25Q350-25 157 38M870 1604L629 1283L411 1283L170 1604L318 1604L521 1402L722 1604L870 1604Z"  horiz-adv-x="1043" vert-adv-y="2048"  />

      
      <glyph glyph-name="uni017D" unicode="&#x017D;" d="M95 0L95 168L890 1323L144 1323L144 1480L1142 1480L1142 1323L347 168L1142 168L1142 0L95 0M1004 1925L763 1604L545 1604L304 1925L452 1925L655 1723L856 1925L1004 1925Z"  horiz-adv-x="1239" vert-adv-y="2048"  />

      
      <glyph glyph-name="uni017E" unicode="&#x017E;" d="M123 0L123 148L795 938L154 938L154 1086L1038 1086L1038 938L366 148L1051 148L1051 0L123 0M935 1604L694 1283L476 1283L235 1604L383 1604L586 1402L787 1604L935 1604Z"  horiz-adv-x="1175" vert-adv-y="2048"  />

      
      <glyph glyph-name="unia6" unicode="&#xa6;" d="M333-296L333 444L432 444L432-296L333-296M333 839L333 1579L432 1579L432 839L333 839Z"  horiz-adv-x="761" vert-adv-y="2048"  />

      
      <glyph glyph-name="unid0" unicode="&#xd0;" d="M191 0L191 679L-31 679L-31 836L191 836L191 1480L683 1480Q904 1480 1039 1431Q1174 1382 1273 1265Q1430 1079 1430 775Q1430 432 1246 219Q1146 102 1015 51Q884 0 686 0L191 0M401 157L670 157Q959 157 1078 312Q1207 477 1207 755Q1207 1016 1080 1165Q1003 1256 896 1289.50Q789 1323 574 1323L401 1323L401 836L734 836L734 679L401 679L401 157Z"  horiz-adv-x="1534" vert-adv-y="2048"  />

      
      <glyph glyph-name="unif0" unicode="&#xf0;" d="M110 1579Q331 1579 507 1503L676 1672L763 1585L620 1442Q860 1283 991 1057.50Q1122 832 1122 577Q1122 305 983 140Q844-25 615-25Q388-25 248.50 130Q109 285 109 538Q109 782 247 935Q385 1088 605 1088Q667 1088 742 1067Q662 1212 495 1317L327 1149L240 1236L384 1380Q267 1431 110 1431L110 1579M620 123Q760 123 841.50 236.50Q923 350 923 546Q923 943 624 943Q481 943 400 835Q319 727 319 537Q319 346 400 234.50Q481 123 620 123Z"  horiz-adv-x="1234" vert-adv-y="2048"  />

      
      <glyph glyph-name="unidd" unicode="&#xdd;" d="M511 0L511 618L17 1480L257 1480L641 812L1055 1480L1250 1480L721 622L721 0L511 0M493 1604L734 1925L962 1925L641 1604L493 1604Z"  horiz-adv-x="1276" vert-adv-y="2048"  />

      
      <glyph glyph-name="unifd" unicode="&#xfd;" d="M260-395L436 0L16 1086L229 1086L540 268L872 1086L1058 1086L465-395L260-395M392 1283L633 1604L861 1604L540 1283L392 1283Z"  horiz-adv-x="1070" vert-adv-y="2048"  />

      
      <glyph glyph-name="unide" unicode="&#xde;" d="M191 0L191 1480L399 1480L399 1187L594 1187Q862 1187 979 1096Q1096 1005 1096 799Q1096 561 936.50 428Q777 295 492 295L399 295L399 0L191 0M399 449L508 449Q683 449 779 536.50Q875 624 875 783Q875 915 794.50 972Q714 1029 528 1029L399 1029L399 449Z"  horiz-adv-x="1132" vert-adv-y="2048"  />

      
      <glyph glyph-name="unife" unicode="&#xfe;" d="M197-395L197 1579L394 1579L394 882Q515 1110 757 1110Q953 1110 1065.50 967Q1178 824 1178 576Q1178 306 1050.50 140.50Q923-25 715-25Q522-25 394 123L394-395L197-395M394 259Q546 123 684 123Q820 123 894 236.50Q968 350 968 556Q968 938 716 938Q551 938 394 759L394 259Z"  horiz-adv-x="1289" vert-adv-y="2048"  />

      
      <glyph glyph-name="uni2212" unicode="&#x2212;" d="M222 543L222 642L1406 642L1406 543L222 543Z"  horiz-adv-x="1628" vert-adv-y="2048"  />

      
      <glyph glyph-name="unid7" unicode="&#xd7;" d="M222 70L744 592L222 1115L292 1184L814 662L1337 1184L1406 1115L884 592L1406 70L1337 0L814 523L292 0L222 70Z"  horiz-adv-x="1628" vert-adv-y="2048"  />

      
      <glyph glyph-name="unib9" unicode="&#xb9;" d="M407 592L407 1384L259 1384L259 1466L555 1490L555 592L407 592Z"  horiz-adv-x="864" vert-adv-y="2048"  />

      
      <glyph glyph-name="unib2" unicode="&#xb2;" d="M149 592L149 714Q215 829 331 933L401 995Q557 1133 557 1252Q557 1401 393 1401Q298 1401 171 1332L171 1449Q298 1503 423 1503Q554 1503 634 1435Q714 1367 714 1257Q714 1178 674 1115Q634 1052 530 967L477 923Q344 814 321 714L710 714L710 592L149 592Z"  horiz-adv-x="864" vert-adv-y="2048"  />

      
      <glyph glyph-name="unib3" unicode="&#xb3;" d="M170 1353L170 1465Q280 1503 396 1503Q678 1503 678 1294Q678 1137 487 1071Q707 1021 707 833Q707 711 620.50 640.50Q534 570 383 570Q277 570 158 599L158 721Q288 670 366 670Q449 670 500 715Q551 760 551 833Q551 1015 291 1015L240 1015L240 1108L284 1108Q528 1108 528 1274Q528 1403 371 1403Q279 1403 170 1353Z"  horiz-adv-x="864" vert-adv-y="2048"  />

      
      <glyph glyph-name="unibd" unicode="&#xbd;" d="M247 592L247 1384L99 1384L99 1466L395 1490L395 592L247 592M99-37L1187 1517L1322 1517L235-37L99-37M978 0L978 122Q1044 237 1160 341L1230 403Q1386 541 1386 660Q1386 809 1222 809Q1127 809 1000 740L1000 857Q1127 911 1252 911Q1383 911 1463 843Q1543 775 1543 665Q1543 586 1503 523Q1463 460 1359 375L1306 331Q1173 222 1150 122L1539 122L1539 0L978 0Z"  horiz-adv-x="1641" vert-adv-y="2048"  />

      
      <glyph glyph-name="unibc" unicode="&#xbc;" d="M247 592L247 1384L99 1384L99 1466L395 1490L395 592L247 592M149-37L1237 1517L1372 1517L285-37L149-37M1283 0L1283 242L876 242L876 356L1279 888L1419 888L1419 359L1542 359L1542 242L1419 242L1419 0L1283 0M1005 359L1283 359L1283 723L1005 359Z"  horiz-adv-x="1641" vert-adv-y="2048"  />

      
      <glyph glyph-name="unibe" unicode="&#xbe;" d="M111 1353L111 1465Q221 1503 337 1503Q619 1503 619 1294Q619 1137 428 1071Q648 1021 648 833Q648 711 561.50 640.50Q475 570 324 570Q218 570 99 599L99 721Q229 670 307 670Q390 670 441 715Q492 760 492 833Q492 1015 232 1015L181 1015L181 1108L225 1108Q469 1108 469 1274Q469 1403 312 1403Q220 1403 111 1353M248-37L1336 1517L1471 1517L384-37L248-37M1283 0L1283 242L876 242L876 356L1279 888L1419 888L1419 359L1542 359L1542 242L1419 242L1419 0L1283 0M1005 359L1283 359L1283 723L1005 359Z"  horiz-adv-x="1641" vert-adv-y="2048"  />

      
      <glyph glyph-name="uni20A3" unicode="&#x20A3;" d="M290 0L290 296L80 296L80 419L290 419L290 1480L1117 1480L1117 1323L499 1323L499 827L1017 827L1017 672L499 672L499 419L709 419L709 296L499 296L499 0L290 0Z"  horiz-adv-x="1295" vert-adv-y="2048"  />

      
      <glyph glyph-name="uni011E" unicode="&#x011E;" d="M1303 40Q1034-37 834-37Q481-37 292.50 163.50Q104 364 104 740Q104 1110 295.50 1313.50Q487 1517 834 1517Q1057 1517 1301 1450L1301 1256Q995 1360 832 1360Q592 1360 459.50 1197.50Q327 1035 327 739Q327 446 469 283Q611 120 867 120Q972 120 1094 157L1094 639L1303 639L1303 40M469 1900L592 1900Q624 1752 802 1752Q980 1752 1012 1900L1135 1900Q1120 1766 1029 1685Q938 1604 802 1604Q666 1604 575.50 1684.50Q485 1765 469 1900Z"  horiz-adv-x="1480" vert-adv-y="2048"  />

      
      <glyph glyph-name="uni011F" unicode="&#x011F;" d="M201-361L224-190Q395-271 562-271Q894-271 894 82L894 253Q843 145 748.50 85Q654 25 538 25Q341 25 226 166.50Q111 308 111 550Q111 798 242 954Q373 1110 581 1110Q763 1110 894 962L894 1086L1092 1086L1092 296Q1092 41 1065.50-81.50Q1039-204 966-282Q837-419 563-419Q375-419 201-361M894 376L894 827Q764 962 611 962Q475 962 398 853Q321 744 321 551Q321 197 572 197Q743 197 894 376M268 1579L391 1579Q423 1431 601 1431Q779 1431 811 1579L934 1579Q919 1445 828 1364Q737 1283 601 1283Q465 1283 374.50 1363.50Q284 1444 268 1579Z"  horiz-adv-x="1277" vert-adv-y="2048"  />

      
      <glyph glyph-name="uni0130" unicode="&#x0130;" d="M190 0L190 1480L400 1480L400 0L190 0M196 1604L196 1801L393 1801L393 1604L196 1604Z"  horiz-adv-x="590" vert-adv-y="2048"  />

      
      <glyph glyph-name="uni015E" unicode="&#x015E;" d="M100 28L100 236Q350 120 512 120Q635 120 710.50 185.50Q786 251 786 356Q786 443 736.50 504Q687 565 554 640L452 699Q263 807 185.50 902.50Q108 998 108 1124Q108 1296 232 1406.50Q356 1517 548 1517Q719 1517 909 1460L909 1268Q675 1360 560 1360Q451 1360 380 1302Q309 1244 309 1156Q309 1082 361 1025Q413 968 551 889L657 829Q849 720 925 623Q1001 526 1001 390Q1001 197 859 80Q717-37 482-37Q332-37 100 28M499 0L596 0L536-109Q613-109 671.50-156.50Q730-204 730-267Q730-336 671.50-384Q613-432 529-432Q457-432 383-411L383-330Q429-345 488-345Q591-345 591-271Q591-175 404-175L499 0Z"  horiz-adv-x="1103" vert-adv-y="2048"  />

      
      <glyph glyph-name="uni015F" unicode="&#x015F;" d="M157 38L157 219Q350 123 493 123Q578 123 634 169Q690 215 690 284Q690 385 533 451L418 500Q163 606 163 805Q163 947 263.50 1028.50Q364 1110 539 1110Q630 1110 764 1085L805 1077L805 913Q640 962 542 962Q456 962 404.50 924.50Q353 887 353 824Q353 735 497 674L592 634Q753 566 820 490.50Q887 415 887 302Q887 159 774 67Q661-25 485-25Q350-25 157 38M488 0L585 0L525-109Q602-109 660.50-156.50Q719-204 719-267Q719-336 660.50-384Q602-432 518-432Q446-432 372-411L372-330Q418-345 477-345Q580-345 580-271Q580-175 393-175L488 0Z"  horiz-adv-x="1043" vert-adv-y="2048"  />

      
      <glyph glyph-name="uni0106" unicode="&#x0106;" d="M1303 76Q1084-37 825-37Q480-37 292 165Q104 367 104 739Q104 1110 295.50 1313.50Q487 1517 836 1517Q1034 1517 1301 1452L1301 1255Q997 1360 832 1360Q591 1360 459 1197Q327 1034 327 737Q327 453 468 290Q609 127 854 127Q1063 127 1303 256L1303 76M654 1604L895 1925L1123 1925L802 1604L654 1604Z"  horiz-adv-x="1417" vert-adv-y="2048"  />

      
      <glyph glyph-name="uni0107" unicode="&#x0107;" d="M951 33Q760-25 621-25Q401-25 256 138Q111 301 111 549Q111 814 254.50 962Q398 1110 655 1110Q782 1110 939 1075L939 910Q772 959 667 959Q515 959 424 845.50Q333 732 333 543Q333 360 427 247Q521 134 673 134Q808 134 951 203L951 33M445 1283L686 1604L914 1604L593 1283L445 1283Z"  horiz-adv-x="1049" vert-adv-y="2048"  />

      
      <glyph glyph-name="uni010C" unicode="&#x010C;" d="M1303 76Q1084-37 825-37Q480-37 292 165Q104 367 104 739Q104 1110 295.50 1313.50Q487 1517 836 1517Q1034 1517 1301 1452L1301 1255Q997 1360 832 1360Q591 1360 459 1197Q327 1034 327 737Q327 453 468 290Q609 127 854 127Q1063 127 1303 256L1303 76M1175 1925L934 1604L716 1604L475 1925L623 1925L826 1723L1027 1925L1175 1925Z"  horiz-adv-x="1417" vert-adv-y="2048"  />

      
      <glyph glyph-name="uni010D" unicode="&#x010D;" d="M951 33Q760-25 621-25Q401-25 256 138Q111 301 111 549Q111 814 254.50 962Q398 1110 655 1110Q782 1110 939 1075L939 910Q772 959 667 959Q515 959 424 845.50Q333 732 333 543Q333 360 427 247Q521 134 673 134Q808 134 951 203L951 33M966 1604L725 1283L507 1283L266 1604L414 1604L617 1402L818 1604L966 1604Z"  horiz-adv-x="1049" vert-adv-y="2048"  />

      
      <glyph glyph-name="uni0111" unicode="&#x0111;" d="M894 0L894 204Q774-25 532-25Q336-25 223.50 118Q111 261 111 509Q111 780 238.50 945Q366 1110 574 1110Q767 1110 894 962L894 1234L635 1234L635 1357L894 1357L894 1579L1092 1579L1092 1357L1289 1357L1289 1234L1092 1234L1092 0L894 0M894 827Q741 962 604 962Q469 962 395 849Q321 736 321 529Q321 148 573 148Q737 148 894 327L894 827Z"  horiz-adv-x="1289" vert-adv-y="2048"  />

      
      <glyph glyph-name="uniad" unicode="&#xad;" d="M111 543L111 691L555 691L555 543L111 543Z"  horiz-adv-x="666" vert-adv-y="2048"  />

      
      <glyph glyph-name="uniaf" unicode="&#xaf;" d="M86 1456L86 1604L937 1604L937 1456L86 1456Z"  horiz-adv-x="1024" vert-adv-y="2048"  />

      
      <glyph glyph-name="unib7" unicode="&#xb7;" d="M524 469L524 716L771 716L771 469L524 469Z"  horiz-adv-x="1295" vert-adv-y="2048"  />

      
      <glyph glyph-name="uni0100" unicode="&#x0100;" d="M17 0L604 1480L812 1480L1390 0L1163 0L1002 410L375 410L212 0L17 0M436 566L941 566L689 1204L436 566M387 1604L387 1752L1029 1752L1029 1604L387 1604Z"  horiz-adv-x="1413" vert-adv-y="2048"  />

      
      <glyph glyph-name="uni0101" unicode="&#x0101;" d="M757 138Q580-25 416-25Q281-25 192 59.50Q103 144 103 273Q103 451 252.50 546.50Q402 642 682 642L728 642L728 773Q728 962 531 962Q378 962 197 866L197 1029Q396 1110 572 1110Q753 1110 839 1027.50Q925 945 925 773L925 281Q925 112 1029 112Q1042 112 1067 116L1081 7Q1014-25 933-25Q795-25 757 138M728 245L728 526L665 528Q501 528 400.50 467Q300 406 300 305Q300 234 350 185Q400 136 472 136Q595 136 728 245M226 1283L226 1431L868 1431L868 1283L226 1283Z"  horiz-adv-x="1131" vert-adv-y="2048"  />

      
      <glyph glyph-name="uni0102" unicode="&#x0102;" d="M17 0L604 1480L812 1480L1390 0L1163 0L1002 410L375 410L212 0L17 0M436 566L941 566L689 1204L436 566M370 1900L493 1900Q525 1752 703 1752Q881 1752 913 1900L1036 1900Q1021 1766 930 1685Q839 1604 703 1604Q567 1604 476.50 1684.50Q386 1765 370 1900Z"  horiz-adv-x="1413" vert-adv-y="2048"  />

      
      <glyph glyph-name="uni0103" unicode="&#x0103;" d="M757 138Q580-25 416-25Q281-25 192 59.50Q103 144 103 273Q103 451 252.50 546.50Q402 642 682 642L728 642L728 773Q728 962 531 962Q378 962 197 866L197 1029Q396 1110 572 1110Q753 1110 839 1027.50Q925 945 925 773L925 281Q925 112 1029 112Q1042 112 1067 116L1081 7Q1014-25 933-25Q795-25 757 138M728 245L728 526L665 528Q501 528 400.50 467Q300 406 300 305Q300 234 350 185Q400 136 472 136Q595 136 728 245M259 1579L382 1579Q414 1431 592 1431Q770 1431 802 1579L925 1579Q910 1445 819 1364Q728 1283 592 1283Q456 1283 365.50 1363.50Q275 1444 259 1579Z"  horiz-adv-x="1131" vert-adv-y="2048"  />

      
      <glyph glyph-name="uni0104" unicode="&#x0104;" d="M17 0L604 1480L812 1480L1390 0L1163 0L1002 410L375 410L212 0L17 0M436 566L941 566L689 1204L436 566M1163 0L1270 0Q1142-77 1142-178Q1142-275 1255-275Q1312-275 1347-260L1347-341Q1287-370 1209-370Q1117-370 1061-326Q1005-282 1005-211Q1005-86 1163 0Z"  horiz-adv-x="1413" vert-adv-y="2048"  />

      
      <glyph glyph-name="uni0105" unicode="&#x0105;" d="M757 138Q580-25 416-25Q281-25 192 59.50Q103 144 103 273Q103 451 252.50 546.50Q402 642 682 642L728 642L728 773Q728 962 531 962Q378 962 197 866L197 1029Q396 1110 572 1110Q753 1110 839 1027.50Q925 945 925 773L925 281Q925 112 1029 112Q1042 112 1067 116L1081 7Q1014-25 933-25Q795-25 757 138M728 245L728 526L665 528Q501 528 400.50 467Q300 406 300 305Q300 234 350 185Q400 136 472 136Q595 136 728 245M864 0L971 0Q843-77 843-178Q843-275 956-275Q1013-275 1048-260L1048-341Q988-370 910-370Q818-370 762-326Q706-282 706-211Q706-86 864 0Z"  horiz-adv-x="1131" vert-adv-y="2048"  />

      
      <glyph glyph-name="uni0108" unicode="&#x0108;" d="M1303 76Q1084-37 825-37Q480-37 292 165Q104 367 104 739Q104 1110 295.50 1313.50Q487 1517 836 1517Q1034 1517 1301 1452L1301 1255Q997 1360 832 1360Q591 1360 459 1197Q327 1034 327 737Q327 453 468 290Q609 127 854 127Q1063 127 1303 256L1303 76M477 1604L718 1925L936 1925L1177 1604L1029 1604L826 1806L625 1604L477 1604Z"  horiz-adv-x="1417" vert-adv-y="2048"  />

      
      <glyph glyph-name="uni0109" unicode="&#x0109;" d="M951 33Q760-25 621-25Q401-25 256 138Q111 301 111 549Q111 814 254.50 962Q398 1110 655 1110Q782 1110 939 1075L939 910Q772 959 667 959Q515 959 424 845.50Q333 732 333 543Q333 360 427 247Q521 134 673 134Q808 134 951 203L951 33M260 1283L501 1604L719 1604L960 1283L812 1283L609 1485L408 1283L260 1283Z"  horiz-adv-x="1049" vert-adv-y="2048"  />

      
      <glyph glyph-name="uni010A" unicode="&#x010A;" d="M1303 76Q1084-37 825-37Q480-37 292 165Q104 367 104 739Q104 1110 295.50 1313.50Q487 1517 836 1517Q1034 1517 1301 1452L1301 1255Q997 1360 832 1360Q591 1360 459 1197Q327 1034 327 737Q327 453 468 290Q609 127 854 127Q1063 127 1303 256L1303 76M730 1604L730 1801L927 1801L927 1604L730 1604Z"  horiz-adv-x="1417" vert-adv-y="2048"  />

      
      <glyph glyph-name="uni010B" unicode="&#x010B;" d="M951 33Q760-25 621-25Q401-25 256 138Q111 301 111 549Q111 814 254.50 962Q398 1110 655 1110Q782 1110 939 1075L939 910Q772 959 667 959Q515 959 424 845.50Q333 732 333 543Q333 360 427 247Q521 134 673 134Q808 134 951 203L951 33M545 1283L545 1480L742 1480L742 1283L545 1283Z"  horiz-adv-x="1049" vert-adv-y="2048"  />

      
      <glyph glyph-name="uni010E" unicode="&#x010E;" d="M191 0L191 1480L683 1480Q903 1480 1038.50 1431Q1174 1382 1273 1265Q1430 1079 1430 775Q1430 432 1246 219Q1146 102 1014.50 51Q883 0 686 0L191 0M401 157L670 157Q958 157 1078 312Q1207 477 1207 755Q1207 1016 1080 1165Q1003 1256 896 1289.50Q789 1323 574 1323L401 1323L401 157M1097 1925L856 1604L638 1604L397 1925L545 1925L748 1723L949 1925L1097 1925Z"  horiz-adv-x="1534" vert-adv-y="2048"  />

      
      <glyph glyph-name="uni010F" unicode="&#x010F;" d="M894 0L894 204Q774-25 532-25Q336-25 223.50 118Q111 261 111 509Q111 780 238.50 945Q366 1110 574 1110Q767 1110 894 962L894 1579L1092 1579L1092 0L894 0M894 827Q741 962 604 962Q469 962 395 849Q321 736 321 529Q321 148 573 148Q737 148 894 327L894 827M1289 1125L1289 1184Q1365 1205 1365 1365L1365 1382L1289 1382L1289 1579L1486 1579L1486 1408Q1486 1145 1289 1125Z"  horiz-adv-x="1585" vert-adv-y="2048"  />

      
      <glyph glyph-name="uni0110" unicode="&#x0110;" d="M191 0L191 679L-31 679L-31 836L191 836L191 1480L683 1480Q904 1480 1039 1431Q1174 1382 1273 1265Q1430 1079 1430 775Q1430 432 1246 219Q1146 102 1015 51Q884 0 686 0L191 0M401 157L670 157Q959 157 1078 312Q1207 477 1207 755Q1207 1016 1080 1165Q1003 1256 896 1289.50Q789 1323 574 1323L401 1323L401 836L734 836L734 679L401 679L401 157Z"  horiz-adv-x="1534" vert-adv-y="2048"  />

      
      <glyph glyph-name="uni0112" unicode="&#x0112;" d="M191 0L191 1480L1018 1480L1018 1323L401 1323L401 848L918 848L918 693L401 693L401 157L1061 157L1061 0L191 0M314 1604L314 1752L956 1752L956 1604L314 1604Z"  horiz-adv-x="1110" vert-adv-y="2048"  />

      
      <glyph glyph-name="uni0113" unicode="&#x0113;" d="M993 35Q795-25 654-25Q413-25 262 134.50Q111 294 111 548Q111 795 244.50 953Q378 1111 586 1111Q783 1111 890.50 970.50Q998 830 998 572L997 512L312 512Q355 125 691 125Q814 125 993 191L993 35M321 660L800 660Q800 963 574 963Q347 963 321 660M272 1283L272 1431L914 1431L914 1283L272 1283Z"  horiz-adv-x="1141" vert-adv-y="2048"  />

      
      <glyph glyph-name="uni0114" unicode="&#x0114;" d="M191 0L191 1480L1018 1480L1018 1323L401 1323L401 848L918 848L918 693L401 693L401 157L1061 157L1061 0L191 0M293 1900L416 1900Q448 1752 626 1752Q804 1752 836 1900L959 1900Q944 1766 853 1685Q762 1604 626 1604Q490 1604 399.50 1684.50Q309 1765 293 1900Z"  horiz-adv-x="1110" vert-adv-y="2048"  />

      
      <glyph glyph-name="uni0115" unicode="&#x0115;" d="M993 35Q795-25 654-25Q413-25 262 134.50Q111 294 111 548Q111 795 244.50 953Q378 1111 586 1111Q783 1111 890.50 970.50Q998 830 998 572L997 512L312 512Q355 125 691 125Q814 125 993 191L993 35M321 660L800 660Q800 963 574 963Q347 963 321 660M262 1579L385 1579Q417 1431 595 1431Q773 1431 805 1579L928 1579Q913 1445 822 1364Q731 1283 595 1283Q459 1283 368.50 1363.50Q278 1444 262 1579Z"  horiz-adv-x="1141" vert-adv-y="2048"  />

      
      <glyph glyph-name="uni0116" unicode="&#x0116;" d="M191 0L191 1480L1018 1480L1018 1323L401 1323L401 848L918 848L918 693L401 693L401 157L1061 157L1061 0L191 0M519 1604L519 1801L716 1801L716 1604L519 1604Z"  horiz-adv-x="1110" vert-adv-y="2048"  />

      
      <glyph glyph-name="uni0117" unicode="&#x0117;" d="M993 35Q795-25 654-25Q413-25 262 134.50Q111 294 111 548Q111 795 244.50 953Q378 1111 586 1111Q783 1111 890.50 970.50Q998 830 998 572L997 512L312 512Q355 125 691 125Q814 125 993 191L993 35M321 660L800 660Q800 963 574 963Q347 963 321 660M481 1283L481 1480L678 1480L678 1283L481 1283Z"  horiz-adv-x="1141" vert-adv-y="2048"  />

      
      <glyph glyph-name="uni0118" unicode="&#x0118;" d="M191 0L191 1480L1018 1480L1018 1323L401 1323L401 848L918 848L918 693L401 693L401 157L1061 157L1061 0L191 0M840 0L947 0Q819-77 819-178Q819-275 932-275Q989-275 1024-260L1024-341Q964-370 886-370Q794-370 738-326Q682-282 682-211Q682-86 840 0Z"  horiz-adv-x="1110" vert-adv-y="2048"  />

      
      <glyph glyph-name="uni0119" unicode="&#x0119;" d="M993 35Q795-25 654-25Q413-25 262 134.50Q111 294 111 548Q111 795 244.50 953Q378 1111 586 1111Q783 1111 890.50 970.50Q998 830 998 572L997 512L312 512Q355 125 691 125Q814 125 993 191L993 35M321 660L800 660Q800 963 574 963Q347 963 321 660M693 0L800 0Q672-77 672-178Q672-275 785-275Q842-275 877-260L877-341Q817-370 739-370Q647-370 591-326Q535-282 535-211Q535-86 693 0Z"  horiz-adv-x="1141" vert-adv-y="2048"  />

      
      <glyph glyph-name="uni011A" unicode="&#x011A;" d="M191 0L191 1480L1018 1480L1018 1323L401 1323L401 848L918 848L918 693L401 693L401 157L1061 157L1061 0L191 0M975 1925L734 1604L516 1604L275 1925L423 1925L626 1723L827 1925L975 1925Z"  horiz-adv-x="1110" vert-adv-y="2048"  />

      
      <glyph glyph-name="uni011B" unicode="&#x011B;" d="M993 35Q795-25 654-25Q413-25 262 134.50Q111 294 111 548Q111 795 244.50 953Q378 1111 586 1111Q783 1111 890.50 970.50Q998 830 998 572L997 512L312 512Q355 125 691 125Q814 125 993 191L993 35M321 660L800 660Q800 963 574 963Q347 963 321 660M919 1604L678 1283L460 1283L219 1604L367 1604L570 1402L771 1604L919 1604Z"  horiz-adv-x="1141" vert-adv-y="2048"  />

      
      <glyph glyph-name="uni011C" unicode="&#x011C;" d="M1303 40Q1034-37 834-37Q481-37 292.50 163.50Q104 364 104 740Q104 1110 295.50 1313.50Q487 1517 834 1517Q1057 1517 1301 1450L1301 1256Q995 1360 832 1360Q592 1360 459.50 1197.50Q327 1035 327 739Q327 446 469 283Q611 120 867 120Q972 120 1094 157L1094 639L1303 639L1303 40M479 1604L720 1925L938 1925L1179 1604L1031 1604L828 1806L627 1604L479 1604Z"  horiz-adv-x="1480" vert-adv-y="2048"  />

      
      <glyph glyph-name="uni011D" unicode="&#x011D;" d="M201-361L224-190Q395-271 562-271Q894-271 894 82L894 253Q843 145 748.50 85Q654 25 538 25Q341 25 226 166.50Q111 308 111 550Q111 798 242 954Q373 1110 581 1110Q763 1110 894 962L894 1086L1092 1086L1092 296Q1092 41 1065.50-81.50Q1039-204 966-282Q837-419 563-419Q375-419 201-361M894 376L894 827Q764 962 611 962Q475 962 398 853Q321 744 321 551Q321 197 572 197Q743 197 894 376M279 1283L520 1604L738 1604L979 1283L831 1283L628 1485L427 1283L279 1283Z"  horiz-adv-x="1277" vert-adv-y="2048"  />

      
      <glyph glyph-name="uni0120" unicode="&#x0120;" d="M1303 40Q1034-37 834-37Q481-37 292.50 163.50Q104 364 104 740Q104 1110 295.50 1313.50Q487 1517 834 1517Q1057 1517 1301 1450L1301 1256Q995 1360 832 1360Q592 1360 459.50 1197.50Q327 1035 327 739Q327 446 469 283Q611 120 867 120Q972 120 1094 157L1094 639L1303 639L1303 40M730 1604L730 1801L927 1801L927 1604L730 1604Z"  horiz-adv-x="1480" vert-adv-y="2048"  />

      
      <glyph glyph-name="uni0121" unicode="&#x0121;" d="M201-361L224-190Q395-271 562-271Q894-271 894 82L894 253Q843 145 748.50 85Q654 25 538 25Q341 25 226 166.50Q111 308 111 550Q111 798 242 954Q373 1110 581 1110Q763 1110 894 962L894 1086L1092 1086L1092 296Q1092 41 1065.50-81.50Q1039-204 966-282Q837-419 563-419Q375-419 201-361M894 376L894 827Q764 962 611 962Q475 962 398 853Q321 744 321 551Q321 197 572 197Q743 197 894 376M514 1283L514 1480L711 1480L711 1283L514 1283Z"  horiz-adv-x="1277" vert-adv-y="2048"  />

      
      <glyph glyph-name="uni0122" unicode="&#x0122;" d="M1303 40Q1034-37 834-37Q481-37 292.50 163.50Q104 364 104 740Q104 1110 295.50 1313.50Q487 1517 834 1517Q1057 1517 1301 1450L1301 1256Q995 1360 832 1360Q592 1360 459.50 1197.50Q327 1035 327 739Q327 446 469 283Q611 120 867 120Q972 120 1094 157L1094 639L1303 639L1303 40M790 0L887 0L827-109Q904-109 962.50-156.50Q1021-204 1021-267Q1021-336 962.50-384Q904-432 820-432Q748-432 674-411L674-330Q720-345 779-345Q882-345 882-271Q882-175 695-175L790 0Z"  horiz-adv-x="1480" vert-adv-y="2048"  />

      
      <glyph glyph-name="uni0123" unicode="&#x0123;" d="M201-361L224-190Q395-271 562-271Q894-271 894 82L894 253Q843 145 748.50 85Q654 25 538 25Q341 25 226 166.50Q111 308 111 550Q111 798 242 954Q373 1110 581 1110Q763 1110 894 962L894 1086L1092 1086L1092 296Q1092 41 1065.50-81.50Q1039-204 966-282Q837-419 563-419Q375-419 201-361M894 376L894 827Q764 962 611 962Q475 962 398 853Q321 744 321 551Q321 197 572 197Q743 197 894 376M700 1737L700 1678Q624 1657 624 1497L624 1480L700 1480L700 1283L503 1283L503 1454Q503 1717 700 1737Z"  horiz-adv-x="1277" vert-adv-y="2048"  />

      
      <glyph glyph-name="uni0124" unicode="&#x0124;" d="M191 0L191 1480L401 1480L401 856L1105 856L1105 1480L1315 1480L1315 0L1105 0L1105 699L401 699L401 0L191 0M403 1604L644 1925L862 1925L1103 1604L955 1604L752 1806L551 1604L403 1604Z"  horiz-adv-x="1505" vert-adv-y="2048"  />

      
      <glyph glyph-name="uni0125" unicode="&#x0125;" d="M197 0L197 1579L394 1579L394 882Q550 1110 776 1110Q918 1110 1001.50 1020.50Q1085 931 1085 780L1085 0L888 0L888 716Q888 837 852.50 888.50Q817 940 735 940Q554 940 394 703L394 0L197 0M-54 1678L187 1999L405 1999L646 1678L498 1678L295 1880L94 1678L-54 1678Z"  horiz-adv-x="1271" vert-adv-y="2048"  />

      
      <glyph glyph-name="uni0126" unicode="&#x0126;" d="M1160 856L1160 1086L456 1086L456 856L1160 856M1370 0L1160 0L1160 699L456 699L456 0L246 0L246 1086L49 1086L49 1234L246 1234L246 1480L456 1480L456 1234L1160 1234L1160 1480L1370 1480L1370 1234L1567 1234L1567 1086L1370 1086L1370 0Z"  horiz-adv-x="1617" vert-adv-y="2048"  />

      
      <glyph glyph-name="uni0127" unicode="&#x0127;" d="M394 882Q550 1110 776 1110Q918 1110 1001.50 1020.50Q1085 931 1085 780L1085 0L888 0L888 716Q888 837 852.50 888.50Q817 940 735 940Q554 940 394 703L394 0L197 0L197 1234L0 1234L0 1357L197 1357L197 1579L394 1579L394 1357L691 1357L691 1234L394 1234L394 882Z"  horiz-adv-x="1271" vert-adv-y="2048"  />

      
      <glyph glyph-name="uni0128" unicode="&#x0128;" d="M190 0L190 1480L400 1480L400 0L190 0M-38 1604Q-27 1838 147 1838Q220 1838 282 1800L342 1763Q398 1728 427 1728Q496 1728 505 1838L628 1838Q617 1604 443 1604Q370 1604 308 1643L248 1680Q192 1714 163 1714Q94 1714 85 1604L-38 1604Z"  horiz-adv-x="590" vert-adv-y="2048"  />

      
      <glyph glyph-name="uni0129" unicode="&#x0129;" d="M197 0L197 1086L394 1086L394 0L197 0M-37 1283Q-26 1517 148 1517Q221 1517 283 1479L343 1442Q399 1407 428 1407Q497 1407 506 1517L629 1517Q618 1283 444 1283Q371 1283 309 1322L249 1359Q193 1393 164 1393Q95 1393 86 1283L-37 1283Z"  horiz-adv-x="592" vert-adv-y="2048"  />

      
      <glyph glyph-name="uni012A" unicode="&#x012A;" d="M190 0L190 1480L400 1480L400 0L190 0M-26 1604L-26 1752L616 1752L616 1604L-26 1604Z"  horiz-adv-x="590" vert-adv-y="2048"  />

      
      <glyph glyph-name="uni012B" unicode="&#x012B;" d="M197 0L197 1086L394 1086L394 0L197 0M-25 1283L-25 1431L617 1431L617 1283L-25 1283Z"  horiz-adv-x="592" vert-adv-y="2048"  />

      
      <glyph glyph-name="uni012C" unicode="&#x012C;" d="M190 0L190 1480L400 1480L400 0L190 0M-38 1900L85 1900Q117 1752 295 1752Q473 1752 505 1900L628 1900Q613 1766 522 1685Q431 1604 295 1604Q159 1604 68.50 1684.50Q-22 1765-38 1900Z"  horiz-adv-x="590" vert-adv-y="2048"  />

      
      </font>
</defs>
</svg>
